<svg viewBox="0 0 1080 1080" xmlns="http://www.w3.org/2000/svg"><path d="m429.69 139.42 2.45-1.99 3.42.58 1.64-4.52 3.87 2.15 3.14.06 2.37-2.68 3.52 1.67 2.87-.77 2.53-2.43 3.32 1.41 2.93-.51 2.23-5.25 3.14.42 3.43 3.5 2.95-.46 2.74-3.56 2.98-1.24 3.14 2.72 3.02 1.56 3-3.26 3.04-.34 2.93 2.65 3.19-3.1 2.97 1.16 2.88 1.74 3.22-1.61 2.93 1.09 3.02.3 3.21-.77 2.96.77 2.27 4.09 2.96.47 3.31-.95 2.23 3.41 4.02-3.28 2.08 3.67 3.41-.83 1.97 3.6 3.34-.48 3.86-1.71 1.05 5.65 4.39-2.81 2.72 1.39 2.06 2.8 3.46-.25 2.91.96 2.88 1.07 2.72 1.4 1.54 3.5 2.74 1.28 2.19 2.22 3.9-.56.55 4.73 2.61 1.48 2.32 1.91 3.06.86 3.69.1.03 4.9 3.11.88 3.8.12 2.37 1.91 1.45 2.93 1.9 2.39 2.67 1.55 3.66.6-.53 4.78 3.35.96 2.6 1.72-.11 4.13 4.44.15.04 3.9 1.13 2.92 3.45 1.13 2.55 1.87-.2 3.85 2.39 2 1.68 2.5 3.39 1.42-.51 3.86 1.45 2.63.47 3.16 2.53 2.03 4.21 1.24-1.17 3.96 1.4 2.67-.17 3.35.58 2.99 2.2 2.33 2.85 2.13 2.59 2.3.42 3.09 1.42 2.75-2.56 3.91 2.42 2.45 2.35 2.54-1.37 3.42.58 2.94.26 2.99.77 2.9-.31 3.08 1.59 2.78 1.08 2.88-2.58 3.32 3.2 2.66.98 2.93-1.3 3.11 1.67 2.91-1.18 3.06-1.78 3.05.39 2.96.05 2.97-.26 2.98 3.11 3.06-3.36 2.88 2.43 3.1-1.85 2.89-1.47 2.87-.24 2.96 1.83 3.18-1.9 2.79 1.58 3.2.75 3.14-.17 3.02.17 3.09-5.19 2.15-.67 2.9 3.9 3.8-2.41 2.58-1.01 2.84.53 3.2-.39 3-2.56 2.45.79 3.3-1.4 2.74-2.24 2.48 2.22 3.78-4.59 1.73.73 3.36.39 3.28-3.41 2.01.75 3.43-2.33 2.34 1.78 3.86-5.12 1.23.44 3.47 3.17 1.84-.95 4.27 3.42.35 2.78-.75 1.35-2.51 2.57-1.5 4.47 1.59.87-4.27 4.26 1.27 1.4-3.41 3.59.18.84-4.35 3.08-.67 4.17 1.18 1.35-3.54 3.81.6.49-5 2.74-1.22 3.76.53.91-4.32 3.28-.29 3.91.83 1.02-4.19 2.54-1.57 2.65-1.37 3.02-.7 4.06 1.16.72-4.83 2.68-1.31 3.33-.12 3.48.2 2.69-1.26.62-5.18 4.44 2.07 2.18-2.26 1.53-3.57 2.37-1.93 4.21 1.83 1.53-3.71 3.4.23 2.85-.9 2.56-1.55 1.94-3.14 3.09-.34 3.19-.09 3.12.34 2.86-.97 2.97-2.13 2.87 4.44 3.15-2.42 2.49 3.14 3.43-2.11 3.48-1.26 1.57 5.08 2.82.76 3.25-.19 3.38-.19 1.97 2.78 3.48-.12 1.99 2.56 3.24.53 2.77 1.35.71 4.1 1.52 2.82 3.09.88 1.65 2.57 3.2.93 2.7 1.55-.12 4.13 3.84.59 1.68 2.49 3.54 1.14-1.77 4.85 3.34 1.37 3.42 1.52.13 3.38 1.09 2.82-.26 3.36 3.46 1.88-.88 3.47 3.58 2.13-3.43 3.9 1.35 2.72-1.01 3.07 3.07 2.68-2.4 3.04 1.38 2.94.41 3-.63 2.92-.76 2.88-.22 2.98-2.59 2.35 3.44 4.23-1.37 2.77-4.11 1.64-2.28 2.24 1.31 3.87-.81 2.96-.11 3.38-5.43.43-.22 3.32-1.15 2.81-2.39 2-.79 3.09-1.56 2.59-.92 3.12-4.63.11.84 4.64-2.25 2.06-2.56 1.75-4.18.14-.11 4.1-4.26-.1-.72 3.59-1.14 3.2-1.55 2.83-3.43.64-3 1.11-.44 4.2-5.37-1.89-1.33 3.15-2.03 2.28-1.78 2.62-2.36 1.88-2.03 2.32-3.18.73-2.01 2.37-3.65.01-1.22 3.5-4.24-.86-.37 4.77-3.8-.25-3.37.38-2.58 1.54-1.5 3.13-3.25.56-1.02 3.86-3.27.5-.94 3.98-3.15.69-4.11-.73-.94 3.96-3.88-.35-2.44 1.76-.46 4.64-4.29-.92-1.23 3.49-3.89-.3-2.37 1.86-.87 3.95-2.12 2.19-2.73 1.35-2.93 1.1-2.15 1.87.72 2.65.11 2.81.41 2.87-2.13 3.45 2.7 2.49 1.68 2.66-1.88 3.63 2.47 2.42 1.44 2.7 1.49 2.67-2.06 3.84 2.62 2.3-.89 3.5 1.04 2.84 2.68 2.25-1.72 3.85 4.09 1.71 1.25 2.75.68 2.96 2.72 2.19-2.1 4.04 1.68 2.6 3.57 1.83-1.85 3.98.67 2.99 2.98 2.05.84 2.91-.21 3.34.36 3.12.9 2.9 4.15 1.55 1.08 2.83-1.32 3.82 1.07 2.83 3.36 1.88 2.74 2.12-.54 3.51.86 2.91 1.36 2.71 1.52 2.64.04 3.26.6 3.04 1.32 2.72.65 3.01 3.59 1.75-1.16 3.78 2.05 2.42 2.32 2.29.62 3.03 1.95 2.45.34 3.14 2.27 2.32 2.39 2.27-1.51 3.91-.12 3.32 2.09 2.38 1.2 2.76 1.67 2.55 3.43 1.77-.59 3.54-.38 3.46 4.94 1.06.7 2.97-.89 3.7 2.21 2.28.1 3.26 2.94 1.95 1.54 2.59 1.86 2.45-.98 3.75 3.62 1.64 1.46 2.63.61 3.03-2.5 4.47 2.22 2.29 3.85 1.54.94 2.88 1.19 2.77-.73 3.64 3.59 1.67-1.4 3.93 1.79 2.48 2.98 1.96-.83 3.66 4.11 1.47.28 3.16 1.36 2.69 1.23 2.75.64 3 2.02 2.42-.46 3.44.78 2.92 2.58 2.21-1.32 3.73 3.4 1.93-.44 3.36 3.68 1.9-1.53 3.71 2.8 2.27-.81 3.39 1.54 2.69.77 2.92.97 2.9.87 2.97-2.13 3.22-1.09 2.81 1.39 3.05-1.48 2.76 1.94 3.43-2.32 2.52-1.42 2.65-1.51 2.58.41 3.37-.12 3.29-2.48 2.12-1.43 2.64-3.34 1.38.5 3.98-1.47 2.71-4.54.1.09 4.09-3.52.72-1.14 3.13-3.16.91-.89 3.69-4.38-.94-1.48 3.07-3.04.71-1.33 3.75-3.37.03-2.46 1.83-3.66-1.08-1.4 4.8-3.06.51-3.24-.29-2.47 2.61-3.31-.86-3.11-.29-3.18-1.09-2.77 1.8-3.04-.37-2.9.88-2.82 2.41-3.16-2.66-2.89 2.85-3.04-3.44-2.93-.24-3.11 3.56-3.09.62-2.65-3.83-3.22 1.6-2.99-.46-2.89-.93-2.45-2.38-3.05-.11-3.62 1.08-2.01-3.01-2.9-.89-2.96-.94-1.45-3.22-2.16-2-3.37-.64-2.21-2.06.04-4.03-1.96-2.11-1.81-2.26-3.82-1.04.5-3.74-2.33-2.1-.52-3.03-3.3-1.82-2.1-2.39 1.61-3.98-2.31-2.29-2.84-2.08.88-3.63-.51-3.06-2.84-2.08-.53-3.05-1.93-2.46-2.44-2.26 3.09-4.54-2.65-2.17-2.83-2.09-.18-3.2-1.52-2.63-.43-3.09-.81-2.93-1.71-2.56-.79-2.94-3.3-1.87 2.21-4.26-3.81-1.63.19-3.39-2.99-1.97.58-3.57v-3.33l-3.95-1.51-2.05-2.36.98-3.81-.41-3.17-4.37-1.2.11-3.44-1.48-2.64-3.36-1.59 1.28-4.18-.27-3.39-1.95-2.43-1.56-2.71-5.49.42.72-4.74-3.13-1.3-2.27-2.64-3.53.38-3.13-.27-3.02-.49-2.99-1.53-3.2-.41-3.34-.52-2.84 2.24-2.51 2.19-2.05 2.47-3 .72-1.57 2.63-1.84 2.18-4.12.83.5 3.76-3.47 1.89 1.85 3.81.2 3.07-3.63 2.26 2.33 3.51-.43 2.95-2.4 2.62.78 3.17-2.33 2.65.49 3.12.33 3.08-3.65 2.47.25 3.08 1.42 3.26-1.3 2.84-1.66 2.79-.64 2.94.28 3.08-1.58 2.81-.94 2.9-.5 2.97 1.34 3.23-2.28 2.7 1.92 3.32.62 3.12.3 3.09-.33 2.99-3.08 2.6 1 3.19-1.54 2.81-2.61 2.66.89 3.17-.05 3.04.61 3.13-1.54 2.81-1.76 2.77 2.18 3.39 1.29 3.25-3.93 2.41-.38 2.99.92 3.2-1.84 2.73-2.06 2.67-.02 3.04 1.01 3.26-2.74 2.46.84 3.24-1.32 2.69-.35 2.9-1.02 2.74-3.34 1.02.5 4.41-3.32.79-2.3 1.8-2.34 1.78-2.47 1.6-1.39 3.8-3.17.44-3.83-1.51-1.58 4.35-3.2-.08-2.61 1.87-3.46-1.53-3.08-.33-2.4 3.48-2.93.89-3.15-1.1-3.11-1.46-2.84 2.2-2.98.76-3.01-1.31-2.94-1.9-3.06 3.01-3-.2-2.74-3.29-3.24 2.79-2.71-2.6-2.83-1.28-2.89-.58-2.94-.38-3.7 2.55-2.94-.88-1.81-4.23-3.31.46-2.45-1.89-2.58-1.46-3.4.1-1.5-3.36-4.2 1.03-2.87-1.29-2.78-1.49-1.05-3.5-3.25-1.02-.59-3.65-2.52-1.81-1.44-2.71-.63-3.2-4.03-.98-.18-3.42-3.44-1.62.25-3.51.89-3.63-2.44-2.24.84-3.42-3.87-1.92.21-3.18-.96-2.86-2.58-2.56 3.92-3.75-2.03-2.69.56-3.06-2.69-2.74.27-3.04-.7-2.98.84-3.04 2.14-3-3.11-3.02 3.23-2.97-.42-3.01-.45-3.01-.67-3.03.91-2.99-.2-3.02-.57-3.04 1.04-2.98.2-3.01-2.6-3.11-1-3.05 2.6-2.92.76-2.99 1.13-2.98-1.48-3.07-.45-3.04 1.61-2.95-3.61-3.16 3.05-2.9 1.7-2.95-4.01-3.18.75-2.98.75-2.99 1.83-2.95-.47-3.03-.69-3.05-1.58-3.08 2.31-2.93 2.04-2.94-1.86-3.08-.17-3.03 2.34-2.92-1.14-3.06-1.24-3.07 2.69-2.91-.79-3.05-2.81-3.13 1.9-2.94-.51-3.05 1.68-2.95-1.93-3.1 3.74-2.88-1.74-3.09-1.52-3.08-.38-3.03 2.55-2.93-1.45-3.08.15-3.02 2.34-2.94-1.04-3.06-1.48-3.07 2.34-2.95-3.24-3.12 3.04-2.93-1.49-3.06-1.32-3.06 4.36-2.9-3.71-3.11 1.86-2.97 1.35-2.99-2.72-3.08 1.56-2.98-1.38-3.05 2.42-2.97-2.55-3.06 4.09-2.97-2.21-3.04-.8-3.03.62-3.01 1.94-3.02-1.54-3.01 1.67-3.04-3.72-2.96 3.64-3.1-4.08-2.89-.05-2.99 3.69-3.24-3.57-2.72 2.75-3.41-.18-3.52-5.54-.46.86-4.66-3.93-.14-.68-4.42-4.58 1.71-1.73-3.19-2.53-1.84-3.56.59-3.16-.15-2.32-2.43-3.31.33-2.74-1.31-2.65-1.69-2.57-2.03-3.77 2.18-2.65-1.75-2.85-1.1-2.36-2.97-3.68 2.16-2.83-1.19-3.07-.25-3.05-.29-2.09-4.3-2.79-1.45-3.76 2.67-2.71-1.73-2.76-1.56-2.52-2.47-3.07-.22-3.52 1.57-3.33.72-2.54-2.2-2.38-2.91-3.77 2.71-2.91-.77-2.45-2.7-3.42 1.35-2.62-2.02-2.46-2.65-3.84 3.08-2.9-.87-2.31-3.24-2.92-.72-2.84-1.06-3.22.42-2.87-.94-3.35.77-2.95-.7-1.7-4.92-3.47 1.09-3.51 1.11-2.28-2.8-3.67 1.4-2.13-3.1-1.9-3.53-4.12 2.37-2.64-1.56-1.87-3.34-4.09 1.8-2.38-2.09-1.5-3.76-3.88.95-2.16-2.34-2.11-2.3-2.49-1.63-1.99-2.33-4.58 1.11-2.86-1.4-1.8-2.64-.41-3.91-3.42-.94-.47-3.51-1.77-2.38-1.45-2.6-3.53-1.35-1.56-2.62 1.12-3.94-1.71-2.46-3.52-1.8 2.62-4.18-4.2-1.73-1.96-2.62 2.77-3.83.21-3.06-1.6-2.7.08-3-1.66-2.79-1.18-2.91.54-3.04-2.69-2.99 3.18-2.99-2.08-3.12.79-2.99 1.4-2.87-1.63-3.32.89-2.96 2.04-2.65-.69-3.33 3.28-2.16-.26-3.26.63-3.02 1.37-2.72 1.36-2.72 3.69-1.4-1.55-4.43 4.47-.67 1.05-2.88 2.8-1.54 2.01-2.16.86-3.26 1.55-2.74 3.01-1.14 2.52-1.62 2.89-1.04 1.43-3.25 3.8.67 2.04-2.44 2.03-2.82 3.08-.46 2.22-3.03 3.09-.48 3.85 3.27 2.11-5.08 3.2.6 3.1.3 3.14 1.83 2.91-3.13 3.07-.62 3.09-.24 2.79 4.68 2.95.31 3.28-2.57 3.1-.31 2.69 2.6 3.05-.04 3.22-.83 2.44 3.33 3.17-.5 3.5-1.86 3.09.1 2.09 4.34 3.1.03 3.17-.25 2.25 3.4 3.17-.1 3.48-1.18 2.78 1.42 2.88 1.04 3.63-1.48 2.26 3.12 3.46-.87 3.07.45 1.94 4.07 3.39-.6 3.1.32 2.18 3.24 2.55 2.06 3.91-2.19 2.39 2.57 2.65 1.74 3.28-.19 3.85-1.93 2.48 2.29 3.05.52 2.54 2.06 2.81-.14 1.76-1.95 4.49.04-.63-3.65 1.14-3.73-4.77-.02-.67-4-4.13.22-.58-3.99-3.38-.75-.26-4.22-4.11-.01-.59-3.75-4.69.42-1.71-2.61-.94-3.29-3.7-.73-1.04-3.17-2.56-1.81 1.06-4.82-2.15-2.1-4.61-.25-.44-3.47-.89-3.08-2-2.27-.73-3.13-1.25-2.75-2.98-1.68-4.13-1.05 2.23-4.8-2.26-2.17-4.48-1.05-.19-3.33-.45-3.16-2.36-2.24 1.26-3.89-.6-3-1.35-2.68-3.45-1.88-1.35-2.74.95-3.54-1.89-2.54-1.67-2.65-1.35-2.76-1.69-2.69.29-3.24-2.36-2.54 1.85-3.58-2.9-2.46.3-3.15-.43-2.98 1.65-3.32-.44-2.94-1.43-2.81 1.53-3.17-.44-2.93-1.72-2.84-.22-2.98-2.91-2.87 3.46-3.11-1.06-2.96-2.57-3.02 2.03-2.98 2.75-2.87-.07-2.97-.17-2.98-.36-3.01 1.68-2.8-3.13-3.4 3.45-2.52-1.21-3.2 1.53-2.76-.05-3.04-.76-3.23 2.69-2.44-2.61-3.76 2.57-2.43 1.91-2.55 2.06-2.46-.77-3.39-.48-3.36 4.22-1.61-.26-3.3.1-3.2 1.14-2.78.76-2.97.42-3.15 3.68-1.52.65-3.04.15-3.36 4.35-.95 1.69-2.45 1.84-2.35 1.44-2.59-.34-3.83 3.52-1.18 1.86-2.32.93-3.03.27-3.59 2.04-2.24 4.89.22-.62-4.49 4.07-.35-.45-4.51 1.61-2.65 2.21-2.07 2.27-2.01 5.2 1.18.15-4.27 1.16-3.25 2.43-1.82 3.2-.85 1.94-2.4 2.84-1.24 1.76-2.68 2.57-1.59 4.15.71.44-4.71 3.78.28 2.56-1.55 2.78-1.17 1.43-3.49 4.5 1.84 2.47-1.66 1.03-4.41 3.24-.29 1.96-2.79 4.29 1.99 1-4.95 4.28 2.18 3.01-.52 1.13-5.05z" fill="#ff965c"/><g fill="#fc5432"><path d="m383.83 420.51-1.79-2.42.31-5.45-4.29 1.46-.62-3.74-2.73-.89-3.63.12-1.3-2.71-2.02-1.85-1.08-2.8-5 1.11-2.47-1.53.77-4.48-1.51-2.32-1.04-2.69-4.18-.15-.7-2.96-3.42-.91-2.34-1.77-1.96-2.06v-3.36l-2.38-1.79 1.81-4.37-4.89-.3 4.52-5.78-6.61.55.21-3.26-1.89-2.14-1.37-2.41 3.07-4.53-2.45-1.85-.89-2.59-6.34-.23 3.74-4.59-1.97-2.15 1.44-3.51-7.33-.12.53-3.17 3.73-4.26-5.92-.84.52-3.1 1.66-3.42-5.14-1.27 4.66-4.3-2.1-2.22-1.3-2.48-4.6-1.61-.27-2.8 2.51-3.48-3.22-2.05.28-2.9-2.18-2.35.86-3.01-2.12-2.4 2.44-3.26 1.64-3.06-1.73-2.47-2-2.58-.25 2.83-.22 2.83.94 2.89-3.12 2.72 4.44 2.95-.87 2.79-2.34 2.85-2.31 2.93 5.8 2.61.18 2.79-.68 2.86-1.36 2.96-1.2 2.99 5.62 2.14-1.31 3-3.88 3.49 5.44 1.93-.69 2.98-3.92 3.73 4.78 1.78-2.08 3.35-.63 3.05 6.16 1.23 1.09 2.54-2.61 3.64 1.85 2.33-2.04 3.6 5.85.92-.66 3.16.48 2.76 2.29 2.06 1.94 2.17-3.08 4.33.18 2.99 3.24 1.58 1.58 2.32.99 2.61-.64 3.49 1.91 2.15 1.56 2.34 1.42 2.41 1.91 2.11 1.87 2.12 3.72.87 2.67 1.5-1.94 4.7 4.35.28-2.62 5.39 6.31-1.33-2.8 5.73 5.14-.59 3.06 1-1.46 4.9 1.85 2.08 3.81.27-.14 3.93 3.62.35 2.37 1.52-.73 4.73 1.94 2.03 1.86 2.11 4.38-.72.13 4.08 3.25.47 4.2-.76.98 3.16.66 2.91-1.34 2.41-.4 1.47-.3 1.7-1.75.22-.79 6.17-2.49-3.68-2.13-2.45-4.38 4.4-2.83-.33-2.35-1.77-2.42-1.57-3.17.72-2.2-2.23-2.14-2.48-3.24.93-2.61-1.01-.97-6.2-2.76-.57-4.46 4.92-1.02-6.16-4.31 4.5-1.08-6.05-4.07 3.87-2.08-2.81-2.44-1.61-2.65-.87-2.58-1.19-2.32-2.16-5.35 1.99 4.83-.04 2.96-.21 2.35 1.63 2.68.68 3.01-.24 2.5 1.19 2.24 1.86 1.77 3.02 2.38 1.41 3.79-2.08 2.72.65 2.39 1.43 2.99.01.74 5.12 3.74-1.62 2 2.21.71 4.93 2.38 1.31 5-4.06-.04 6.3 3.88-1.7 2.04 2.04 3.37-.63 3.56-.98.49 5.11 1.8 2.53 3.87-1.65 1.03 4.15 4.27-2.65.72 5.09 2.57 1.08 2.29 1.94 3.73-2.26 2.38 1.79 3.42-4.35 2.3 2.43 2.61.21 2.96 1.26 3.3.7 2.59-1.71-.37-5.05 3.28-.34.6-2.66-1.63-2.94 6.74-1.78-5.7-2.54-1.42-2.09 1.51-3.04 2.99-4.34-1.16-2.76-1.25-2.72-2.61-1.72-4.46-.02-3.69-.3-1.69-1.99-.78-3 .1-4.14-1.85-2.11-4.85 1.57-.12-4.24-3.28-.2-3.67.48.84-5.99-2.15-1.78-5.09 2.84-2.65-.85z" opacity=".31"/><g opacity=".31"><path d="m726.64 903.7-2.46-1.42-2.8-.29-2.91-.47-2.32-1.67-2.23-1.73-1.02-2.99-2.53-1.37-1.73-2.16-1-2.7-1.91-2.01-1.09-2.55-1.25-2.44-2.06-1.99-1.81-2.17-.08-3.05-2.09-2.05-.84-2.65-.82-2.66-.77-2.67-1.41-2.4-1.45-2.38-2.12-2.12.01-2.99-1.69-2.29-.22-2.9-1.41-2.42-.42-2.82-2.24-2.06-.43-2.82-2.08-2.1.07-3.06-1.92-2.16-.83-2.67-.91-2.64-1.84-2.16-1.93-2.07-1.26-2.43-.33-3.02-2.04-1.94-.91-2.71-1.64-2.21-1.74-2.14-2.11-1.83-2.05-1.85-1.2-2.61-1.88-2.02-2.49-1.37-2.44-1.36-1.18-2.85-3.1-.46-1.61-2.42-2.19-1.66-2.78-.67-1.94-2.17-2.6-.94-2.54-1.01-2.58-.92-2.31-1.74-2.74-.48-2.56-1.15-3.09 1.3-2.43-1.91-2.77.02-2.73-.25-2.74-.06-2.7-.96-2.77.83-2.81-.77.19.39 2.72-.07 2.45 1.14 2.43 1.06 1.86 2.16 3.14.34.81 3.05 2.61 1.44.96 2.7 2.01 1.98 1.9 2.08.16 3.1 2.11 1.97.3 2.97 1.6 2.26 1.22 2.47 1.35 2.4 1.26 2.45 2.29 1.96-.1 3.09 1.81 2.2.45 2.83 1.32 2.42 1.55 2.33 1.4 2.39.16 2.94 1.1 2.52 1.5 2.36.44 2.81 2.65 1.86-.46 3.19 2.36 2 .49 2.79 1.57 2.33.2 2.9 1.44 2.4.37 2.83 1.53 2.35 1.92 2.18-.05 3.01 1.49 2.37.2 2.9 1.99 2.16.5 2.78 2.17 2.08.03 2.97.85 2.64 1.48 2.36 1.04 2.56 2.29 2-.57 3.26 1.8 2.28 2.16 2.03.8 2.77 1.23 2.56 2.08 1.97 2.02 1.96 1.61 2.3 1.78 2.17 2.19 1.75 2.29 1.61 1.66 2.51 2.6 1.2 2.71.89 2.63.98 2.66.83 2.26 1.95 2.95-.09 2.58 1.15 2.79.32 2.7.71 2.76.48 2.68 1.32 2.82.36 2.89-1.7 2.78.93 2.82.93 2.81-.47 2.82-.06 2.77-.8 2.75-.85 2.85.28 2.71-.95 2.75-.58 2.78.06 2.77-.08 2.65-.71 2.62-.82 2.46-1.35 2.59-.83 3.01.31 2.81-.43 2.27-1.73 2.13-1.91 2.87-.43 2.41-1.35 2.37-1.42 2.56-1.14 2.27-1.6 1.22-2.92 2.9-.82 2.02-1.89 2.03-1.88 1.48-2.4 1.98-1.91.97-2.75 2.16-1.78 1.77-2.11.76-2.76 1.42-2.32 2.76-1.64-.02-2.24-1.63 1.19-2.61 1.14-1.74 2.17-1.44 2.67-2.34 1.49-2.27 1.6-2.46 1.27-2.72.77-2.29 1.57-2.96.11-2.26 1.69-2.63.78-2.77.3-2.44 1.38-2.81-.01-2.52 1.33-2.71.44-2.74.14-2.76-.13-2.72.05-2.71.94-2.73-1.29-2.75.86-2.79.65-2.61-1.74-2.75.06-2.82.55-2.56-1.48-2.93 1.07-2.7-.55-2.58-1.1z"/><path d="m603.1 779.24h.81l-.81-2.09z"/></g><path d="m472.87 961.46 2.85-.64 2.8-.27 2.71.66 2.79-.61 2.67 2.78 2.8.17 2.76-2.83 2.82 2.23 2.74-.83 2.8.11 2.62-1.64 2.67-.68 3.11 2 2.58-1.44 2.56-1.26 3.18 1.24 2.23-2.4 2.56-1.03 3.13.49 2.24-1.93 2.95-.25 1.77-2.68 1.98-2.01 3.22-.06 1.66-2.42 2.69-1.07 2.36-1.59.3-3.41 4.1-.46 1.49-2.58-1.6-3.57 1.2-2.41.88-2.53 1.52-2.41.38-2.66-1.02-2.93.77-2.58-.32-2.77 2.09-2.35 1.47-2.47-.4-2.8.86-4.09-3.04 3.1-3.1.62-2.21 1.75-1.55 2.71-2.57 1.28-2.65 1.14-1.85 2.38-2.5 1.38-1.59 2.98-3.58-.58-3.02.36-2.24 1.82-2.15 2.12-3.25-.33-1.56 3.43-3.46-1.53-2.37 1.45-2.35 1.82-3.08-1.3-2.61.69-2.57 1.12-2.72.26-2.63 2.18-2.81-2.89-2.74 1.53-2.62-1.8-2.94 2.03-2.56-1.56-3.13 1.68-2.21-2.8-3.11.94-2.27-2.02-3.11.41-1.71-3.07-3.2.33-2.48-1.27-2.05-1.99-2.85-.71-1.42-2.77-1.92-1.97-2.4-1.41-1.22-2.65-3.3-.66-1.99-1.98-1.38-2.46-.69-2.87-.95-2.62-3.56-1.14-.58-2.85.32-3.17-.88-2.51-.31-2.69-2.84-2.21 1.03-2.99-2.49-2.47 2.24-3.04-.82-2.69-1.71-2.67.21-2.8-.87-2.76-.26-2.78.97-2.8-.72-2.77 1.11-2.78-.2-2.78-.19-2.78 2.01-2.73-2.06-2.82-.24-2.79 2.68-2.69-1.89-2.84 1.52-2.71.79-2.74-1.96-2.86 2.19-2.66.28-2.76-.72-2.82.89-2.72-1.84-2.89 1.04-2.71-1.69-2.89 2.75-2.6-.69-2.83.96-2.71-1.22-2.87 1.5-2.67.8-2.73-2.45-2.95 1.29-2.68.74-2.73-1.72-2.91 1.48-2.67-.64-2.83.25-2.76.14-2.77 2.34-2.6-1.41-2.89-.14-2.8-.47-2.82 2.49-2.6-.57-2.83-1.05-2.87 1.58-2.66 1.3-2.69-.41-2.82-.55-2.83.66-2.74 1.65-2.66-3.19-3.02 1.9-2.65-.67-2.83.14-2.78 1.35-2.69-1.45-2.88-.19-2.8.33-2.76 3.3-2.58-.07-2.79-1.41-2.86-.17-2.79.54-2.75 2.11-2.68-2.65-2.9 1.46-2.71.28-2.77-1.02-2.82.17-2.77-1.09-2.8 3.55-2.69-3.03-2.84 2.77-2.74-1.6-2.79-.24-2.78.55-2.77 1.19-2.8-2.44-2.72 2.54-2.88-2.51-2.65.53-2.82 1.33-2.91-.16-2.81-1.96-2.57 1.04-3.01-3.87-2.01-.28-2.68-.47-2.66-.59-2.77.26-3.41-4.24-.55-.69-2.91-1.75-2.14-1.43-2.57-2.11-1.9-1.77-2.43-2.83-.91-3.63.84-1.46-3.31-3.52 1.2-1.91-2.77-2.5-1.4-3.26 1.36-2.32-2.12-3.1 1.28-2.62-.94-2.65-.84-2.73-.54-2.71-.63-2.73-.73-2.9 1.57-2.74-.54-2.69-1.96-2.83 1.13-2.76-1.41-2.79-.02-2.79 2.32-2.78-.46-2.78.54-2.83-2.92-2.79.12-2.76 1.02-2.78.62-2.78.3-2.77 1.29-2.84-3.31-2.76 2.03-2.78.44-2.6-.82 2.74-.52 2.61.81 2.65.63 2.02 3.29 2.85-.18 2.99-.76 2.11 2.84 2.98-.7 3.09-1.1 2.02 3.17 3.35-2.05 2.63.75 2.24 2.24 2.31 1.87 3.35-1.79 2.22 2.16 2.9-.15 2.23 2.04 3.16-.85 2.5 1.19 2.6.92 2.36 1.51 2.44 1.27 2.05 2.09 2.7.67 1.84 2.26 1.88 1.96 4.04-.87.01 4.01 3.38.65.83 2.73.44 2.75-.95 2.87 2.61 2.54.14 2.79-1.84 2.86 2.41 2.69-.04 2.79-2.8 2.82 1.83 2.75.38 2.78.93 2.77-2.48 2.78-.47 2.77 3.03 2.8-.22 2.77-.48 2.78.54 2.78-1.48 2.76.37 2.78.4 2.79.68 2.79-2.05 2.73-.91 2.76 1.95 2.82.87 2.8-.55 2.77-1.13 2.74 1.07 2.81-2.91 2.69.44 2.8 1.7 2.83.11 2.78-2.62 2.69-.29 2.76 2.63 2.87-2.71 2.68 2.14 2.85.24 2.78-2.74 2.68 3.31 2.9-.34 2.76-2.62 2.68.56 2.79 1.19 2.83-.34 2.77-1.06 2.74-.57 2.76-.44 2.76 1.99 2.87-2.2 2.7 1.68 2.84-.3 2.77-1.09 2.74.39 2.8-.04 2.78 1.18 2.83-2.14 2.69-.34 2.77-1.04 2.74 2.95 2.9-2.15 2.69-.45 2.77-.31 2.76 2.64 2.89-.16 2.77-2.79 2.67-.49 2.76 1.16 2.83-1.39 2.73 1.64 2.84-1.5 2.72 1.11 2.83.36 2.79-1.54 2.73-.78 2.75 2.27 2.86-.4 2.76.17 2.79-2.37 2.7.9 2.81 2.29 2.85-1.18 2.74-1.37 2.74-.45 2.77.16 2.78-.31 2.78.43 2.78 1.76 2.77-2.29 2.81 3.02 2.7-.81 2.81-1.34 2.89.06 2.81 1.25 2.68.58 2.73.01 2.83 2.23 2.39-1.28 3.13.99 2.63-.57 3.09 3.5 1.82-.45 3.09.03 3.01 1.05 2.64.89 2.72 2.55 1.86 2.15 1.97.88 2.73 1.34 2.48.58 3.1 3.76.56.02 3.75 3.37.64 2.7 1.14 1.5 2.49 1.7 2.35 2.62 1.14 1.42 2.99 2.43 1.52 2.54 1.3 3.35-.48 2.33 1.65 2.61 1.02 3.21-.82 2.19 2.32 2.6 1.1 2.97-.46 2.81.06 2.53 1.73z" opacity=".31"/><path d="m836.99 422.61-2.08.91-1.29 2.41.06 3.14-2.49 1.77.58 3.6-3.57 1.01-.62 2.93-2.03 1.95-.88 2.82-2.89 1.25-.25 3.39-2.82 1.26-1.98 1.95-1.17 2.69-1.84 2.1-3.12.82-1.44 2.49-2.12 1.79-2.41 1.48-.65 3.43-2.82 1.01-2.53 1.32-1.47 2.57-2.59 1.23-1.7 2.33-3.14.47-1.28 2.93-2.95.66-2.09 1.86-2.27 1.6-2.29 1.57-2.38 1.44-2.44 1.33-1.66 2.65-2.42 1.4-2.6 1.07-2.23 1.75-3.03.21-2.27 1.7-2.75.61-2.85.51-2.29 1.57-1.96 2.1-2.83.65-1.65 2.51-1.37 2.82-2.81.74-1.68 2.29-3.11.44-1.19 2.86-3.89-.37-.98 3.06-2.61 1.2-1.5 2.41-1.45 2.41-1.6 2.23-3.64.37-.26 3.43-1.83 2.02-1.13 2.56-2.79 1.3-1.71 2.14-2.16 1.87-.16 3.14-2.37 1.78-.55 2.81-.99 2.54-2.46 1.9-.15 2.91-1.39 2.42.85 3.07-3.03 2.12 1.55 3.03-1.09 2.62.74 2.73.5 2.63-.87 2.85.51 2.71 2.3 2.06-1.13.44-1.15-2.65-.02-2.86-.43-2.86.37-3.36 2.75-1.42 2.67-1.07 1.67-2.42 2.28-1.59 2.8-.86 1.76-2.31 2.63-1.09 1.96-2.04 1.8-2.3 2.32-1.54 2.42-1.4 2.23-1.66 2.81-.82 2.91-.66 1.88-2.17 2.14-1.81 2.78-.84 2.27-1.6 1.52-2.73 3.16-.28 1.44-2.83 3.53.26.82-3.75 2.75-.88 3.04-.47 2.45-1.35 1.08-3.31 2.58-1.15 2.74-.93 2.94-.67.83-3.6 2.89-.73 1.43-2.74 2.71-1 2.13-1.77 3.3-.28 2.2-1.71 1.46-2.62 2.8-.97 1.98-1.98 1.63-2.37.98-3.07 3.8.06.91-3.1 3.11-.78 1.55-2.39 2.25-1.69.64-3.21 2.2-1.74 2.53-1.48 2.24-1.76.63-3.07 2.86-1.31 1.67-2.25 1.28-2.52 1.79-2.17.92-2.72 1.45-2.37.45-2.94 2.85-1.63.38-2.93-.15-3.12 1.32-2.41 1.5-2.36 1.29-2.47 1.36-2.46 1.66-2.31.98-2.57-.36-2.88-.46-2.8-.02-2.68.41-2.62-.64-2.66 1.9-2.66z" opacity=".31"/><path d="m644.33 521.42-1.48 2.47-.45 3.05-2.94.7-2.58 1.45-3.07-.25-1.82-2.53-1.01-2.44-2.32-2.45.84-3.05 1.6-2.74 3.32-.15 2.46-1.25 3.46-1.14 2.32 2.56.85 3.03z" opacity=".37"/><path d="m472.35 631.05-1.31 2.82-1.33 2.66-2.49 1.74-2.99 1.59-2.78-2.11-2.23-1.7-.88-2.57-2.84-2.43 2.12-2.74 1.73-2.13 2.3-1.36 2.58-2.63 3.37.7 1.4 3.38 1.2 2.3z" opacity=".37"/><path d="m725.62 525.89 1.1 3.12-1.59 2.84-3.51-.06-2.44 3.12-3.39-.85-1.49-3.3-1.97-2.03-1.56-2.84.8-3.15 2.31-2.15 2.56-1.3 2.74-.29 3.25-.97 1.62 2.99 2.78 1.7z" opacity=".37"/><path d="m683.95 829.88-.11 3.4-3.01 1.8-2.63.99-2.57 2.07-3.43.04-2.66-2.2-1.12-3.11-1.48-2.99 2.67-2.49 1.13-2.4 1.72-2.78 3.17-.78 2.49 2.44 2.01 1.52 3.32 1.26z" opacity=".37"/><path d="m435.6 594.3-2.03 2.62-.23 3.47-2.83 1.79-3.26-1.55-2.95.8-2.7-1.48-2.4-2.32 1.26-3.33.84-2.46-.27-3.75 2.91-1.77 3.31-.32 3.34.23 2.06 2.67 1.95 2.35z" opacity=".37"/><path d="m474.24 586.96-1.13 2.3-1.54 1.95-2.45.12-2.03-.86-2.81-.72.71-2.79-.38-2.61 2.04-1.66 2.47-.55 2.08 1.2 2.54.95z" opacity=".37"/><path d="m479.72 777.15-.79 2.85-2.47 1.41-2.46.07-2.8.53-1.44-2.41-1.14-2.45 1.26-2.38 1.3-2.5 2.82-.61 2.76.72 1.79 2.15z" opacity=".37"/><path d="m484.2 824.99-.99 2.49-1.59 2.24-2.73.64-2.68-.71-.81-2.64-.95-2.02-.01-2.57 2.44-.92 2.01-1.22 2.81-.14.95 2.69z" opacity=".37"/><path d="m453.22 794.98.38 2.85-2.2 1.88-2.74.98-2.13-2.02-1.59-1.55-1.05-2.14.4-2.53 1.79-1.94 2.58-1.3 2.06 2.2 2.35 1.02z" opacity=".37"/><path d="m680.46 570.86.16 2.89-2.22 1.91-2.77.53-2.62-.79-1.77-2-.45-2.54-.11-2.85 2.19-1.93 2.76.16 2.61.1 1.34 2.25z" opacity=".37"/><path d="m744.76 786.93-.72 2.48-2.03 1.46-2.27.56-2.02-1-1.8-1.29-1.82-2.21 1.75-2.24 1.03-2.71 2.86.18 2.25.88 2.58 1.11z" opacity=".37"/><path d="m550.58 754.33-1.01 2.44-2.17 1.11-2.05.49-2.42.14-1.12-2.14-2.2-2.04.95-2.77 2.14-1.81 2.65-.39 2.01 1.48 2.85.68z" opacity=".37"/><path d="m629.5 273.15-.72 2.58-1.61 2.38-2.86-.94-2.77.77-.86-2.69-1.35-2.1.56-2.55 2.01-1.62 2.41-.03 2.69-.45.83 2.62z" opacity=".37"/><path d="m425.14 416.57-.59 2.88-2.15 2.04-2.84-.78-2.12-.45-2.23-1.17-.83-2.52.87-2.49 2.31-.99 2-1.9 2.37 1.29 1.66 1.77z" opacity=".37"/><path d="m673.49 782.04-1.33 2.44-2.05 1.31-2.16.89-2.5-.3-1.64-1.95.08-2.39-.91-2.86 2.52-1.38 2.45-1.07 2.67.69 1.46 2.24z" opacity=".37"/><path d="m721.03 455.79.2 2.8-2.36 1.51-2.49 1.08-2.68-.74-1.99-1.95.32-2.7-.11-2.57 1.8-2.04 2.66-1.04 2.27 1.73 1.99 1.46z" opacity=".37"/><path d="m324.64 582.07.3 2.56-2.09 1.5-2.35 1.55-2.17-1.85-1.96-1.38-.26-2.38-.01-2.55 2.19-1.3 2.21-.3 2.73-.57 1.53 2.26z" opacity=".37"/><path d="m348.15 292.53-1.53 2.12-1.03 2.45-2.64.86-2.07-1.83-2.37-1.03v-2.57l.88-2.06.99-2.4 2.57.33 2.04.61 1.86 1.27z" opacity=".37"/><path d="m371.96 568.52.3 2.8-2.68.97-2.17.87-2.7.03-1.82-2.06-1.08-2.61.68-2.85 2.33-1.64 2.59-1.03 2.49 1.21 1.91 1.77z" opacity=".37"/><path d="m319.9 539.2.25 2.62-1.86 2.02-2.67.51-2.31-1.15-1.44-1.84-1.81-2.16 1.07-2.58 2.3-1.21 2.19-.56 2.07.76 2.51.95z" opacity=".37"/><path d="m243.02 539.2.12 2.7-2.28 1.45-2.39 1.36-2.22-1.67-2.33-1.21-.72-2.63.99-2.46 1.57-2.22 2.71-.03 2.27.78 1.89 1.53z" opacity=".37"/></g><path d="m498.57 151.97 3.05.03 1.93-1.46 2.28 1.18 2.14-.6 2.09 1.13 2.32-1.72 2.04 1.32 2.39-1.29 1.83 2.31 2.36-.84 2.02 1.02 1.99 1.01 2.33-.41 2.37-.46 2.06.78 1.55 2.5 2.36-.32 1.71 1.76 2.07.62 2.1.56 2.29.03 2.23.25 1.56 1.98 1.98.88 2.43-.2 2.38.01 1.1 2.84 2.95-1.16 1.29 2.34 1.81 1.24 2.52-.13 1.21 2.34 2.1.67 1.95.96 1.93 1.02 1.12 2.3 2.08.75 1.4 1.78 3.44-1.15.52 3.02 2.12.78 1.78 1.24 1.87 1.15.9 2.31 2.55.37.85 2.3 2.19.83 2.28.8 1.15 1.95 1.39 1.69.18 2.76 3.26.07-.4 3.13 2.7.65.38 2.46 2.04 1.24 1.93 1.34-.5 3.01 2.33 1.08-.23 2.78 1.64 1.54 1.1 1.89 1.32 1.76 1.18 1.85 2.67 1.01-.8 2.95 1.98 1.43-.02 2.48 1.25 1.82 1.57 1.68 1.36 1.8-.54 2.64.87 2.01 1.44 1.77-.17 2.42 3.19 1.14-1.62 2.92 2.72 1.38-.21 2.39 1.44 1.85-.71 2.51 1.18 1.94-.51 2.4 1.28 1.93 1.87 1.83-1.3 2.52 1.11 2.02-.97 2.39 1.84 1.91-.59 2.3 2.07 1.96-1.47 2.36-.18 2.2.78 2.13v2.19l1.96 2.18-2.82 2.16.87 2.21 1.29 2.3-1.28 2.09-.85 2.08.41 2.31-.01 2.3-1.16 1.98-1.29 1.84-1.69 1.63-2.34-.94-.09-2.7-1.6-1.54-1.76-1.55-1.34-1.81-1.3-1.83.56-2.66-2.21-1.45-.23-2.29-1.25-1.87-.54-2.15-.72-2.09.58-2.62-.64-2.12-3.39-.96.36-2.54.45-2.57-1.41-1.8-.77-2.06-1.72-1.65-1.72-1.64-.11-2.35-1.76-1.61-1.2-1.86-.25-2.3-.36-2.26-1.14-1.89-1.19-1.86-1.83-1.54-1.01-1.94.72-2.85-.21-2.39-1.98-1.44-2.15-1.32.13-2.61-1.12-1.9-1.12-1.9-.58-2.25-1.19-1.88-3.17-.53.26-2.86-1.36-1.75-1.24-1.83-2.06-1.2-1.14-1.91-2.56-.68-.74-2.27-1.25-1.85-2.43-.6-1.49-1.55.1-3.29-3.27.41-.85-2.31-.84-2.37-2.25-.68-2.87.14-1.59-1.46-1.8-1.18-1.56-1.49-1.18-2.05-2.08-.79-.81-2.62-2.39-.34-1.65-1.43-1.34-1.9-2.37-.33-1.29-2.01-2.48-.13-1.83-1.15-1.68-1.4-1.55-1.62-1.76-1.27-2.52-.01-.86-2.77-2.58.1-2.47-.08-.69-3.07-2.12-.67-2.54.03-1.01-2.53-3.02.83-1.78-1.24-1.37-1.93-2.14-.65-1.59-1.55-.77-2.77-2.6.03-1.15-2.11-1.94-.96-2.28-.6-1.27-1.82-1.43-1.58-.67-1.99-2.13-1.82z" fill="#ffe6ae" opacity=".34"/><path d="m568.29 539.2-.83 2.74-.22 2.81-.87 2.71-3.23 1.16-.21 3.34-2.64 1.17-2.48 1.06-2.17 1.82-2.74.37-2.73.76-2.5-2.14-2.83.61-3.12.19-.98-3.61-3.45-.1-.87-2.89-2.03-1.96-.36-2.79-.04-2.68-1.33-2.57.58-2.68.74-2.58.74-2.61 1.95-1.94 2.08-1.62.78-3.21 2.55-1.25 2.88-.15 2.6-.44 2.61-.89 2.68.51 3.08-.84 1.7 3.07 3.04.19 2.62 1.32.87 2.96 1.42 2.32 2.1 2.15-1.04 3.08z" fill="#16623e"/><path d="m584.19 611.64 1.2 2.83-2.13 2.29-1.31 2.24-1.44 2.08-1.23 2.33-1.96 1.73-1.56 2.67-3.15-.48-2.25 2.25-2.84-1.06-2.68.03-2.31-1.55-2.69-.28-3.04-.33-2.31-1.72-.82-2.97-2.78-1.58.32-3.18-2.16-2.37 1.23-2.93-1.22-2.92 2.02-2.42 1.79-2.12.1-3.11 2.29-1.68 2.22-1.56 2.01-1.94 2.61-.92 2.63-.91 2.79.5 2.87-1.1 2.48 1.7 2.12 1.81 3.33-.2.8 3.27 1.85 1.83 1.35 2.23 1.68 2.18.61 2.65z" fill="#16623e"/><path d="m530.79 463.21-1.21-2.93-3.49-1-2.19-1.62-2.13-1.65-1.36-2.73-2.13-1.82-2.03-2.05-2.66-1.03-2.65-.99-2.72-.82-1.41-3.46-2.82-.66-3.16.18-2.58-1.08-3.04.11-2.37-1.6-2.65-.86-1.78-3.51-3.21.81-2.99.24-2.65-.86-2.76-.42-2.24-2.88-3.14 1.57-2.76-.14-2.57-2.58-2.86 1.6-2.84-.65-2.53 1.26-2.7.86-.69 3.13-2.52 1.42-2.85 1.87 1.24 3.35-1.58 2.55-.59 2.8 1.28 2.88-1.88 2.83.83 2.81.56 2.79-.57 2.91 1.61 2.64-.32 2.9 1.59 2.59-.55 2.98-.15 2.92.6 2.78 1.27 2.6.26 2.86.88 2.7 2.81 2.1 1.13 2.54-.65 3.21 2.26 2.09.43 2.86 1.9 2.14.71 2.82 1.79 2.16.78 3.05 1.81 2.37 2.72 1.31 2.15 2.22 3.58-1.15 2.21 2.97 3.05-.65 3.11.33 1.9-3.03 3.32.5 1.33-3.2 3.64.52 2.2-1.75.46-3.94 2.3-1.47 3.93.37.77-3.3 3.03-.8.67-3.28 2.96-.94 1.47-2.42 2.13-1.8 2.66-1.35 2.03-1.95 1.68-2.24.14-3.39 3.14-1.15.83-2.82.36-3.04 2.15-1.94 1.98-2.14 1.17-2.6 1.03-2.72-.46-3.01z" fill="#fc5432"/><path d="m523.61 464.86-.41-2.73 1.61-2.46-.68-3.13 2.53-1.94.42-2.89 1.11-2.6.67-2.92 2.94-1.4 2.11-1.91 1.89-2.04.97-2.78 1.73-2.2 2.13-1.85 1.01-2.87 1.47-2.48 1.67-2.32 2.89-1.09 2.11-1.87 3.29-.53 1.26-2.79.83-3.39 2.9-.92 2.51-1.35 3-.59 2.03-1.95 2.12-1.9 2.74-.72 2.68-.51 2.34-2.67 2.89 1.17 2.87.46 1.96 2.24 2.81 1.07 1.01 2.86 2.3 1.8 1.76 2.26.1 3.12.44 2.85 2.78 1.86 1.59 2.44-1.4 3.45 3.56 1.84.87 2.71.99 2.68-1.8 3.37.89 2.68 2.81 2.27.17 2.86-2.26 3.32 3.28 2.27-.05 2.88.02 2.85-1.03 2.9.83 2.75-1.47 2.77.64 2.78 2.14 3.08-3.51 2.22-.38 2.68-.94 2.52 1.27 3.85-3.98.71-1.51 2.25-2.04 1.79-2.53 1.01-2.18 1.55-2.75-1.16-2.76 2.45-2.49-2.86-2.67-.3-2.88.64-2.66-.63-2.6-.86-2.6-.89-2.77-.27-3.19.87-1.88-3.03-2.28-1.74-3.41 1.19-1.92-2.56-2.31-1.55-2.72-.62-2.93-.28-1.94-2.22-2.13-1.78-2.34-1.38-3.42.24-2.97-.68-.61-3.71-2.51-1.3-.93-2.75-2.94-1.31z" fill="#fc5432"/><path d="m541.14 462.94 1.04 2.57.7 2.76-1.27 2.53-.91 2.5-1.27 2.32-.85 2.69-2.26 1.6-2.29 1.45-2.63.96-2.86-.01-2.67-.98-2.44-1.46-1.91-2.06-.84-2.73-2.13-1.94-.42-2.76.58-2.85-.99-2.48-.54-2.63-.22-2.72 1.65-2.39.56-2.53-.2-3.09 1.91-2.08 1.77-2.26 2.64-1.21 2.8-.55 2.57 1.36 2.95-.32 2.22 1.7 1.11 2.65 1.94 1.82.48 2.69 2.21 1.99-.03 2.77z" fill="#f7f6f7"/><path d="m421.34 222.45c1.56.39 3.15.91 4.74 1.16a32.52 32.52 0 0 0 3.68.09c-2.07-.12.31.27.88.46l-3.59-2.75 1.79 2.51c1.86 2.62 5.22 3.94 8.21 2.15l2.49-1.49-7.27-.94 2.27 1.88c2 1.64 4.92 2.49 7.27.94l2.19-1.46-4.63.6 2.53.58a6.18 6.18 0 0 0 6.77-2.76l1.51-2.52-3.58 2.76c.59-.13 3.29-.33 1.1-.31.91 0 1.83.13 2.73.19a5.86 5.86 0 0 0 5.18-3l1.24-2.54-3.58 2.76 2.79-.62a6.07 6.07 0 0 0 4.4-5.78l.1-3.35-1.76 4.24c.4-.4 2.51-2 .71-.91.69-.43 1.5-.75 2.23-1.11a5.79 5.79 0 0 0 3-5.18l-.34-3-1.76 4.24a35.18 35.18 0 0 1 4-3.58 5.82 5.82 0 0 0 1.54-5.84 12 12 0 0 0 -.5-1.42c-1.25-2.55.36.79-.43 1.39.38-.29.41-2.59.51-3.16.15-.94.31-1.87.51-2.8.26-1.22-.67 1.32.08-.29.27-.58.63-1.14.95-1.71 1.71-3.1.48-6.19-2.16-8.21l-2.61-2 2.76 3.59c-.64-2-1-4.06-1.65-6-1.07-3.11-2.93-4.67-5.52-6.48-1.8-1.26-4.23-.92-6.06 0l-3 1.53 7.27.94-2.33-2.25a6.17 6.17 0 0 0 -7.27-.93c-4.05 2.11-5.32 5-6.86 9.11l2.76-3.59-2.52 1.36c-2.09 1.14-3.73 4.42-2.76 6.78l1.06 2.57.61-4.62c-1.37 3-2.32 5.88-1.6 9.27a11.76 11.76 0 0 0 1.8 4.31 6.64 6.64 0 0 0 1.41 1.49c1.76 1.29-.53-2.54-.31-.66a13 13 0 0 0 10.89 11.4l-4.21-4.22 1.15 3.33c1.15 3.31 4 4.75 7.39 4.19l3-.49-5.84-1.54 2.07 2.18a5.91 5.91 0 0 0 5.84 1.54c1.76-.6 3.52-1.18 5.3-1.73l-6.84-2.75c2.35 3.15 4.05 5.68 8.41 5.69 3.23 0 5.95-1.3 8.82-2.65l-4.62.6c4.43.93 6.71.21 10.22-2.59l-4.24 1.75c3.5-.35 6.2-1.08 8.46-4 2-2.54-.48 1.24-1 .16a14.83 14.83 0 0 0 1.93-.46 10.83 10.83 0 0 0 4.36-2.59 8.13 8.13 0 0 0 2.66-3.8c.23-.68.24-1.43.48-2.11-.73 2 .53-.41.67-.71 1.31-2.71 1-5.68 1.35-8.64l-1.76 4.24 2.22-2c5.71-5.23-2.79-13.69-8.49-8.49-2.74 2.51-3.95 4.64-4.21 8.44-.05.82 0 4.41.23 1.63.18-2.31-.16-.62-.69.32a10.68 10.68 0 0 0 -.89 2.05 5.15 5.15 0 0 0 -.41 1.78c.31 1.64 1.88-3.25.67-1.42l-.89.74q-1.36 1.09 1.87-1.07a14.81 14.81 0 0 0 -2.29.55c-2.63.94-4.28 2.91-6.13 4.91l4.25-1.76a14.33 14.33 0 0 0 -8.56 3.55l5.84-1.54c-2.9-.61-5-.84-7.79.44-1.78.81.31.34-1.65.63-1.19.18 1-.44 0 0a5.12 5.12 0 0 1 -1.61 0l5.18 3-2-2.71c-1.57-2.1-4.05-3.61-6.78-2.75-1.78.55-3.54 1.13-5.3 1.73l5.84 1.54c-1.38-1.44-2.69-3.19-4.72-3.72s-4.21.17-6.16.49l7.38 4.19-1.16-3.33c-.64-1.84-2.1-3.87-4.19-4.2a10.49 10.49 0 0 1 -1.68-.26c-.68-.14-.58-.05.31.27l-.68-.47-.68-.46c1.56 1.85 2.06 2.26 1.48 1.23-.47-.32-.87-1.78-.26-.36-1.06-2.47-1.3-4.89-3.13-7a14 14 0 0 0 -1.3-1.21q1.59 3.3 1 1.62l-.37-1.17c-.26 1.5.52.22.1 0 .07-1.21 0-1.1-.34.33-.42 1.27-.48 1.52-.16.76 2.54-2.06 1.23-6.28.23-8.71l-2.76 6.78c4.11-2.23 5.26-5.08 6.95-9.21l-2.76 3.58 2.43-1.26-7.27-.94 2.34 2.24a6.19 6.19 0 0 0 7.27.94l3.05-1.53h-6.06l2.28 1.59-2.76-3.59c.72 2 1.09 3.86 1.66 5.85 1 3.41 3.16 5 5.85 7.09l-2.11-8.16c-2.89 5.23-4.32 11.52-2.33 17.25l1.54-5.84c-3.94 3-6 5.65-5.44 10.84l3-5.19a14.94 14.94 0 0 0 -5.23 3.77c-2 2.38-1.9 4.82-2 7.73l4.41-5.79c-4 .87-5.84 2.26-7.62 5.91l5.18-3c-5.68-.39-9.11.82-12.12 5.82l6.78-2.75c-3.81-.87-6.08-.68-9.35 1.48l7.18.93-2.27-1.88c-2.06-1.71-4.83-2.4-7.27-.94l-2.46 1.53 8.21 2.15c-2-2.81-3.87-5.23-7.45-6a13.53 13.53 0 0 0 -2.84-.14c-2.09 0 1.38.46-.8 0-1.2-.25-2.39-.59-3.58-.89-7.49-1.89-10.68 9.68-3.19 11.57z" fill="#f7f6f7"/><path d="m282.74 441.33c.68.64 1.42 1.24 2.06 1.92-1.36-1.44.12.54.41.69.58 1 .62.84.13-.56-.32-1.48-.38-1.62-.2-.39a17 17 0 0 0 .37 2.92c.82 3.55 3 6 5.49 8.6l-.94-7.27c-.95 1.9-2.43 4.06-2.43 6.24s1.5 4.38 2.46 6.29l.93-7.27a22.2 22.2 0 0 0 -2.72 2.3 9.94 9.94 0 0 0 -1.62 2.84c-.39.9-.45 3.25-.11.86.22-1.59.56-1-.56-.13a5.45 5.45 0 0 0 -1.69 1.8 16.07 16.07 0 0 0 -1.34 4.59l5.79-4.41c-3.74.45-7.09.56-9.1 4.27-1.75 3.21 3-1.74-.49.8a8.9 8.9 0 0 0 -3.48 4.58 10.15 10.15 0 0 0 -.74 5.18c.06.65.29 1.29.34 1.94.15 1.84.54-1.28-.13.7-.88 2.59.45-1.87-.39.83a7.54 7.54 0 0 0 -.71 2.78c0 1.89 1.16 3.76 1.92 5.44v-6.07l-1.82 2.95a6.09 6.09 0 0 0 2.15 8.21l3 1.76-3-5.18c-.34 2.72-.59 4.92 1.39 7.19.54.61 1.33 1 1.87 1.63-.68-.78-.43-.72-.13.13.61 1.74-.1-.53.12.33 1.15 4.69 2.12 7.54 6.87 9.56l-2.76-3.59c.24.77.52 1.53.73 2.3-.52-2-.16.3-.07 1.18a7.86 7.86 0 0 0 1.77 4.54c.44.56 2.79 3 1.14.76-1.48-2-.18-.51-.26.28-.14 1.32-.13-1.26.05.08a31.73 31.73 0 0 0 .35 3.49c.12.48.95 2.88.75 1.75s-.12 1.5-.14 2.07l1.8-4.24-2.64 2.54c-.25.24-2.13 1.69-1.1 1.05s-1.16.4-1.4.54a28.31 28.31 0 0 0 -6.17 5.18 10.75 10.75 0 0 0 -1.4 1.38c-.87.77-.69.74.52-.1 1.32-.63 1.42-.79.31-.5-1.35-.3-3.18.87-4.27 1.49a14.58 14.58 0 0 0 -6.63 7.35c-1.28 3.18-2.29 5.74-1.37 9.22.19.71 1.29 4.46 1 2.44.31 2.15-.19 3.77.81 5.86a47.54 47.54 0 0 0 8.87 12.55l-.93-7.27c-1.18 2.09-2.61 4.07-2.27 6.6.24 1.79 1.32 3.63 2 5.3v-6.03a24.82 24.82 0 0 1 -2.92 5.07l3.59-2.76c-2.33.59-4.69.92-6.25 2.94-1.18 1.53-1.58 3.66-2.14 5.48l5.78-4.4a16.38 16.38 0 0 0 -6.22.87 8.06 8.06 0 0 0 -2 .93c-.23.19 3.95-.51.59-.45a20.85 20.85 0 0 0 -9.5 2.61l4.62-.61-2.88-1.11c-7.21-2.78-10.33 8.82-3.19 11.57 2.76 1.07 4.56 1.67 7.51.51.83-.32 1.57-1 2.42-1.22-2.29.73.87.17 1.33.12-2.54.23.75.11 1.25.05a12.08 12.08 0 0 0 3.59-1c3.8-1.52-.41-.42-.39-.26s2.57-.05 2.86-.05a6.17 6.17 0 0 0 5.79-4.41l1.06-3.44-4.19 4.19c4-1 6.53-2.53 8.58-6.19 2.37-4.23 1.54-7.37-.26-11.55v6.06l1.56-2.77a6.14 6.14 0 0 0 -.94-7.27c-.65-.64-1.37-1.25-2-1.93 1.39 1.57-.45-.81-.69-1.21-.62-1-1.17-2.14-1.81-3.18-.2-.33-2.06-3.64-2.36-3.6q.76 4.11.66 1.68v-1.72a15.34 15.34 0 0 0 -.64-3.14 14.5 14.5 0 0 0 -.54-1.61l-.5-1.76c-.28 2.7-.22 3.32.21 1.85.16-.24 1.6-4.09 1.54-4.15-1.49 2.25-1.73 2.78-.73 1.61l1.09-1.18c-1.65 1.52.67-.4 1.25-.65-2.06.88.38.18.78.1a8.24 8.24 0 0 0 3.7-1.73 33.3 33.3 0 0 0 2.91-2.91c.54-.54 1-1.1 1.6-1.6s3-1.74 1.07-.78a24.2 24.2 0 0 0 7.67-5.94 9.39 9.39 0 0 0 2.06-7 12.19 12.19 0 0 0 -.3-2.17c-.12-.45-1.07-3.48-.67-1.22-.81-4.6-1-7.41-4.52-10.95l1.76 4.25c-.15-5.61-1.31-9.47-6.77-11.79l2.76 3.59c-1.32-4.81-2.24-8.73-6.15-12.13l1.76 4.24.37-2.94c.24-2-1.32-4.22-3-5.19l-3-1.75 2.15 8.21c2.64-4.27 2.86-6.75.73-11.41l.6 4.62a15.55 15.55 0 0 0 1.31-7.24c-.05-.68-.18-3.15-.59-3.49-.09-.08.18 4.08.29 2a7.24 7.24 0 0 1 .62-1.67l-2.76 3.58a19.89 19.89 0 0 0 5.8-6.38l-5.18 3 3.42-.41c2.57-.3 5.14-1.64 5.78-4.4.12-.52.3-1.05.37-1.58.44-3.24-.37 1.19-.95.9.46.23 2.7-2.52 2.83-2.72a12.65 12.65 0 0 0 .75-1.82c.38-.86.47-2.94 0-.66-.34 1.76-.52.86.57.06.47-.35.91-.77 1.36-1.15 2.11-1.77 2.07-5 .94-7.27l-1.64-3.25v6.05l1.61-3.21a6.2 6.2 0 0 0 -.93-7.27c-.61-.62-1.25-1.23-1.82-1.88-1.23-1.38.89 1.54-.19-.36-1.75-3.09.52 1-.12 1-.09 0-.29-2.52-.34-2.77-.72-3.92-2.93-6.48-5.79-9.15-5.64-5.27-14.15 3.2-8.49 8.48z" fill="#f7f6f7"/><path d="m718.3 364.7a13.87 13.87 0 0 0 -3.7 9.15l1.75-4.24c-1.93 1.87-4 3.55-4.07 6.48a14.21 14.21 0 0 0 .74 3.8c.35 1.3-.37-1.54 0-.34.14.45.08 1 .18 1.45.24 1.19.27-1.61.17-.31 0 .53-.2 1.07-.29 1.6a7.85 7.85 0 0 0 .18 4.58 23.29 23.29 0 0 0 3.21 4.66c2.82 3.75 6.27 3.65 10.31 5.25a12.37 12.37 0 0 0 1.42.57c1.94.5-1.43-.55-1.46-1 0 .39 2.3 1.86 2.82 2.19 2.82 1.79 5.35 1.05 8.38.37l-4.62-.61c.66.39 3.23 2.08 1.65.84 1.37 1.07 2.32 2.44 4 3.14 1.49.63 3.09.48 4.65.74 1.07.18-1.55-.45.16.19.64.24 1.31.41 2 .62l-4.41-5.79a22.87 22.87 0 0 0 4 11.62l-.61-4.62c-.07.27-.72 2.66-.66 2.69-.47-.19 2.56-3.46.13-.8a27.45 27.45 0 0 0 -3 4.31c-2.16 3.45-2.71 5.38-2.34 9.47l1.76-4.24c-4.13 4.08-7.92 9.87-5.81 15.73.77 2.13 1.92 5.54 4.15 6.61 1.38.66-.84-2.85-.36-.78a11.54 11.54 0 0 0 1.05 2.65 9.4 9.4 0 0 0 2.32 2.32c1.11.92 2.5.82.72.37-1.38-.34-.84-.8-.17.7a6.16 6.16 0 0 0 1.37 2.19 15.14 15.14 0 0 0 3.46 2.47c2.27 1.13 7 1.66 9.36.18 1.83-1.15-3.46-.82-1.33-.12a12.25 12.25 0 0 0 1.58.31c.91.15 1.86.32 2.78.41 2.56.24 4-.5 6.25-1.39 1.79-.7-1.62.49.44-.06.59-.16 1.2-.29 1.8-.44l-5.83-1.62a31.09 31.09 0 0 0 5.54 4.29l-2.75-3.59a22.66 22.66 0 0 0 4.08 7l-1.54-5.84c-.17.43-1.52 3-.55 1.32a13.56 13.56 0 0 0 -1.7 3.24c-.6 2.33.4 4.26 1.18 6.37l2.76-6.77c-3 2-6.41 4.54-6.93 8.41a7.88 7.88 0 0 0 .4 3.44c.41 1.39 2.09 3.11.45-.87.19.46-1 2.68-.15.93-.38.8-1 1.56-1.41 2.33a5.91 5.91 0 0 0 0 6.05c.36.54.74 1.08 1.09 1.62 1 1.49-.2-.93.22.26s.64 2.23 1 3.32c1.33 3.72 3.68 4.76 7.11 6.1l-3.58-2.76c1.64 3 3 4.95 6.49 5.63s5.79-.23 8.68-2.15l-4.62.6c4 1 6.38.78 9.8-1.58l-4.62.61c.71.12 3.66.76 1.68 0 1.33.49 2.37 1.52 3.77 1.88 2.1.56 4.62.17 6.82.45l-4.24-1.75 1.69 2-1.75-4.24c.35 2.81.55 5.62 1.71 8.24a24 24 0 0 0 1.55 2.87c.32.51 1 2.35.45.51.2.69.26 1.45.39 2.15l.61-4.62-1.82 2.55c-4.55 6.25 5.86 12.24 10.36 6.06 3.24-4.46 2.94-8.33.2-13a17.14 17.14 0 0 1 -1.08-2c.3.73-.19-1.27-.1-.78.19 1.05-.16-1.34-.24-1.81a9 9 0 0 0 -2-4.7 8.63 8.63 0 0 0 -6.62-3.58 19.32 19.32 0 0 0 -2.15-.21 9.43 9.43 0 0 0 -1.73.08c.21-.55 3.4 1.76 1.71.33-3.85-3.25-9.3-2.29-13 .26l4.63-.6c-4.12-1-6.48-.7-10 1.65l4.62-.61-2.86-.39 3.59 2.76c-2-3.57-3.93-5-7.68-6.45l4.19 4.19c-1.1-3.23-1.91-6.09-3.85-9v6.05c2.64-4.35 3.44-7.73 2-12.68l-.6 4.63c.5-.78 2.46-2.83.47-1.18-2.17 1.81.83-.28 1.45-.7 2-1.39 3.71-4.21 2.75-6.78l-1.18-3.18-.61 4.62a36.57 36.57 0 0 0 2.86-6c.81-2.07-.26-4.28-1.54-5.83a9.38 9.38 0 0 0 -.85-1c-1.76-1.67.92.91.57 1.27a18.63 18.63 0 0 0 -1.33-3.36 9.27 9.27 0 0 0 -3.23-2.8c-.77-.48-.82-.51-.09.09-.51-.42-1-.94-1.45-1.38-4.15-3.69-8.7-1.61-13.06.48l4.62-.6c-1.57-.23-3.12-.51-4.68-.78a10.14 10.14 0 0 0 -4.07 0c-.49.1-1 .32-1.45.47-1.68.53 1.14-.2 0 .07a4.41 4.41 0 0 1 -1.58 0c-1.38-.55 3.28.63 1.83.43-.27 0-1.42-1.19-1.58-1.08.76-.54 1.74 3.22 1.47 1-.31-2.51-3.2-4.12-5-5.49l2.76 3.59a16.42 16.42 0 0 0 -4.06-6.51c-.88-.89.79 1.31.19.23a15.68 15.68 0 0 1 -.77-1.66c.79 2-.13-.83-.36-1.59l-.6 4.63c.85-1.43 1.63-2.84 2.39-4.32s-1.08.83.61-.81a11.25 11.25 0 0 0 2-2.29 7.08 7.08 0 0 0 .73-4l-.16-1.8q-.09-2.31-.73 1.8c.37.1 2.22-3.4 2.47-3.82.54-.86.46-.84-.22.08l1.12-1.29a15.14 15.14 0 0 0 1.67-2.05c1.09-1.95 1.94-5.49 1.34-7.62a16.45 16.45 0 0 0 -2.6-4.5l-.73-1.54q.84 3.94.57 1.74a18 18 0 0 0 -.26-2.63 6.28 6.28 0 0 0 -4.4-5.79 36.14 36.14 0 0 0 -7.65-1.45l4.25 1.76a26 26 0 0 0 -5.53-4.26c-2.92-1.57-5.34-.94-8.37-.26l5.84 1.55a28.43 28.43 0 0 0 -13.55-6l3.58 2.76q-1.79-2.4-3.55-4.81l.61 4.63a26.41 26.41 0 0 0 -.49-11.66l-1.54 5.84c3-2.89 4-5.08 4.23-9.21l-1.74 4.16 1.8-2.18c4.87-5.92-3.57-14.46-8.49-8.49z" fill="#f7f6f7"/><path d="m404.75 860.72 2.59 1.86-1.22-9.43-4 5.1c-1.49 1.93-2.64 5-.94 7.27l1.92 2.56a6.36 6.36 0 0 0 6.78 2.76l5.95-1.19-5.83-1.55 1.9 1.88-1.76-4.24.31 3.4a6.2 6.2 0 0 0 6 6l2.95.28-5.75-4.42c2 7.14 6.28 9.23 13.51 8.21l-6.77-2.76 2.05 3.71a6.06 6.06 0 0 0 9.42 1.21 62.85 62.85 0 0 0 5.81-6.7l-9.43 1.21 4.13 3.52c3 2.55 7.23 2.24 9.43-1.21a28 28 0 0 0 2.62-4.85c.37-.94 1.83-3.41.27-1.34-1.73 2.3.45-.31.9-.89l-5.83 1.54 5.35 2.1c4.67 1.82 8.11-3.39 7.38-7.38l-1-5.69-4.19 7.38c.63-.12 3.32-.62 2.42-.49s1.88-.14 2.51-.19a6.22 6.22 0 0 0 5.77-4.38l1-4-5.79 4.4a7.47 7.47 0 0 0 1.73.14c3.17-.78-.88 2.35-1.06-.52 0 .5 3.23 2 3.78 2.21 3.06 1.26 5.92.87 8.94-.22l-4.63-.6c2.34 1.74 4.26 2.85 7.32 2.06a21.09 21.09 0 0 0 3.35-1.12c0 .83-3.93-1-1.86.28a10.64 10.64 0 0 0 2 .67l-4.19-4.19.75 3.66c.52 2.57 3.28 4.39 5.78 4.41h4.29l-6-6-.21 4.2c-.14 2.79 2 4.91 4.4 5.79l3.07 1.11-3.59-2.75c2.32 5.44 6.79 8 12.53 9.07l-3.59-2.76 2.14 3c2.08 2.88 5 3.56 8.21 2.15l1.92-.83c2.42-1-1.9.53.83-.3 2-.62-1.31-.2.68-.16.64 0 1.29.11 1.93.16 2.7.21 5-2 5.79-4.41l1.1-3.37-5.78 4.41c3.48.44 8.2.78 10.94-2a6.74 6.74 0 0 0 1.39-2.2c1.7-3.57-2 1.09-.44-.12 2.43-1.9 0 1.55-1.13 0a11.51 11.51 0 0 0 2.61-.26 6.22 6.22 0 0 0 6-6l.56-5.69-6 6 3.43.4-5.18-3 2.77 4.36a6.15 6.15 0 0 0 6.77 2.76l2.44-.74-4.62-.61c.23.13 2.39 1.39 1.51.79s1.07 1 1.29 1.17a6.25 6.25 0 0 0 7.28.94l4.12-2.09-4.63.6 2.61 1-3.56-2.71 1.28 2.83a5.82 5.82 0 0 0 5.18 3l3.41-.2-6-6-.05 4.84c0 1.9 1.11 4.38 3 5.18 4 1.7 7.11 2.83 11.44 2.25l-5.26-2.99 2.29 3.25c2.32 3.29 6.34 3.93 9.42 1.22l2.9-2.55-7.27.94c2.81 1.59 5.15 3.18 8.52 2.17a25.22 25.22 0 0 0 6.54-3.33 6.25 6.25 0 0 0 2.76-6.78l-.86-4.21c-1.55-7.56-13.12-4.36-11.57 3.19l.86 4.21 2.76-6.78c-.87.57-1.73 1.17-2.61 1.71 1.78-1.09-.89.35-1.74.68l4.62.61-3.23-1.83a6.2 6.2 0 0 0 -7.27.94l-2.86 2.56 9.42 1.22-2.29-3.25c-1.12-1.59-3-3.26-5.18-3-.65.09-1.31.22-2 .27-1.94.13 1.54-.19-.86 0l-1.1-.29c1 .46 1.17.55.55.28s-1.34-.58-2-.86l3 5.18.05-4.84c0-3.1-2.78-6.19-6-6l-3.41.2 5.18 3c-1.52-3.38-3.19-5.27-6.87-6.38-3.51-1.05-6.31.93-9.34 2.47l7.27.94c-3.89-3.47-7-5.28-12.27-3.74l6.78 2.75c-1.12-1.76-2.18-4.11-3.71-5.57-2-1.94-5.05-1.86-7.67-2.16-3.44-.4-5.72 3.09-6 6l-.56 5.69 6-6c-5.68.58-9.37 2-11.85 7.36l3.58-2.76c-.93.22-3.78.32-1.7.46-1.14-.08-2.27-.29-3.4-.43-2.67-.34-5 2.11-5.79 4.4l-1.1 3.37 5.78-4.4c-4.37-.35-7.45 1-11.41 2.77l8.21 2.16c-1.42-2-2.72-4.44-5-5.43a10.7 10.7 0 0 0 -2.85-.69c-1.29-.17 1.48.44.2.23a9 9 0 0 1 -1.77-.78 6.86 6.86 0 1 0 -1.12-.77c1.29 1.4 0-.85-.4-1.55-1.51-2.57-4.16-3.22-6.78-4.17l4.41 5.78.21-4.2c.16-3.26-2.88-6-6-6h-4.29l5.79 4.4-.74-3.66a6.05 6.05 0 0 0 -4.2-4.19c-4-1.33-6.44-1-10.41.34l4.63.6c-1.61-1.2-3.07-2.44-5.21-2.44a7.85 7.85 0 0 0 -3.33.84c-1.47.44-.85.53 1.88.27l-1.21-.23c-.69-.17-.56-.06.41.31l-1.4-.88a13.22 13.22 0 0 0 -2.37-1.34 21.84 21.84 0 0 0 -5.77-.8c-2.56-.21-5.17 2-5.79 4.41l-1 4 5.78-4.4a76.53 76.53 0 0 0 -8.12 1.11c-3.38.65-4.73 4.4-4.19 7.38l1 5.69 7.38-7.39-5.31-2.19a5.77 5.77 0 0 0 -5.84 1.54 22 22 0 0 0 -3.58 5.7c-.33.86-1.49 2.89-.41 1.15-.55.89-1.12 1.77-1.69 2.66l9.43-1.22-4.13-3.51c-3.21-2.74-7-2-9.42 1.21-.35.46-.69.92-1 1.37-.17.21-1.53 1.72-.6.75s-1 .86-.9.78c-.44.48-.93.92-1.4 1.38l9.43 1.21-2.05-3.71c-1.41-2.56-4.14-3.13-6.78-2.76l-2.84.41 4.63.6-2.37-1.16 2.76 3.58-.93-3.25a6.18 6.18 0 0 0 -5.78-4.4l-2.95-.28 6 6c-.35-3.81-.8-7-4-9.52-3.53-2.86-7.78-1.16-11.79-.35l6.71 2.73-1.92-2.55-.93 7.27 4-5.1c2.52-3.24 2.21-7-1.21-9.43l-2.59-1.85c-6.3-4.5-12.29 5.91-6.06 10.36z" fill="#f7f6f7"/><path d="m407.54 726.53c1.4 2.94 3.17 6 6.92 6 2.35 0-2.36-1.44-1.09-.88a5.3 5.3 0 0 1 1.37 1.31c-1.45-1.83.38 1.49.7 2.19 1.13 2.54 4.35 3.21 6.77 2.76l3.54-.67-4.62-.6c1.38.85 2.68 1.78 4 2.65 2.26 1.44 4.05 1.28 6.58 1.39 2.35.1 4.16.77 6.43-.43a15 15 0 0 0 2.86-2.25c1.67-1.7-3.66 1.34-.09.26a7.52 7.52 0 0 0 5.46-5.51c1.27-3.9-1.67 2 .08 0 1.45-1.7-3.41 1.12.34.16 5.61-1.44 6.61-6.69 7-11.7l-1.79 4.18c.29-.24 1.89-1.28 1.88-1.58-2.44 1.15-2.91 1.53-1.41 1.16l1.57-.3c2.11-.67 3.47-2.07 5.08-3.52l-7.28.94c3.14 1.44 5.68 2.9 9.15 1.42 1.77-.76 3.46-1.76 5.23-2.55l-7.22-.96c4.41 4.05 8 5.32 13.87 3.58l-6.77-2.76 1.88 2.9c1.34 2.06 4.25 3.71 6.78 2.75l3.31-1.25-4.62-.61c1.74 1.2 3.13 2.27 5.34 2.41a6.09 6.09 0 0 0 2.27-.19c1.21-.06.5-.3-2.13-.7l1.24.93c2.65 1.92 6 2.12 9.13 2.26l-4.24-1.76 2.55 2c2.08 1.64 4.83 2.47 7.27.94.8-.49 1.58-1.09 2.42-1.51-1.88 1 .89-.18 1.36-.3s3.49-.69 1.22-.45c.89-.09 1.82 0 2.72-.06 2.49-.06 5.26-1.81 5.79-4.41l.69-3.41-2.77 3.64c3.86-2.11 8.09-3.89 10-8 .3-.66 1.3-3 .48-1.16 0 0 .75-1.75.77-1.75.34-.67.09-.49-.75.55-1 .86-1.23 1.1-.58.71 1.81-.24 3.87-2.61 5.19-3.73l-4.24 1.76 3.08.27c2.15.19 4.06-1.31 5.18-3l1.79-2.65-8.23 2.1 2.84 1.5a6.12 6.12 0 0 0 7.27-.94l2.54-2.77-7.27.94c3.81 2 6.91 2.28 11.11 2l-4.23-1.83a14 14 0 0 0 3.26 3.39 8.87 8.87 0 0 0 2.71.89c2.79.88-1.41-.83.66.19 3.53 1.74 5.69 1.66 9.39.53l-6.78-2.75 2.07 3.32a6.1 6.1 0 0 0 8.21 2.15c.73-.42 2.27-.94 2.8-1.6q1.6-.87-2.18.51h.7c.13.12 2.53.12 1 0s.58 0 .58.07l1.08.14-2.16-1.33a23.71 23.71 0 0 0 2.52 2.21c2.67 2.35 5.77 2.11 8.49 0l2.77-2.15-5.84 1.54c4.1 1.29 8 1.41 11.54-1.26a6.4 6.4 0 0 0 1.44-1.31q1.79-1.53-1.57.78l1.56-.24a8.28 8.28 0 0 0 4.65-2.7 32.64 32.64 0 0 0 3-3.7c.83-1.12-1.07.86.8-.94.31-.3.57-.64.87-.94 1-1 2.49-1.89 3.16-3.13s-2.39.51-1.1.58a10.41 10.41 0 0 0 2.52-.57 6.1 6.1 0 0 0 4.4-5.79l.17-4.06-6 6c4.39-.13 6.8-.82 9.75-4.21l-7.27.94a27 27 0 0 0 4.48 1.9 8.1 8.1 0 0 0 3.6-.09l1.78-.4c-2.59-.25-3.32-.23-2.2.08 2.92 2.34 7.09-.27 9.71-1.75h-6.06a6.79 6.79 0 0 1 1.23.7c2.09 1.53-.32-1.84-.72-1.37a20.37 20.37 0 0 0 1.73 2.79 6.16 6.16 0 0 0 8.21 2.15l3.5-1.72-8.21-2.15 1.73 3.07c1.21 2.16 4.34 3.65 6.77 2.76l3.31-1.2-5.84-1.55c2.19 2.15 4.83 4.73 8 5.16a6.4 6.4 0 0 0 3.43-.53c2.92-1.17-.07.45-.87-.73a32.49 32.49 0 0 0 3.87.75 20.61 20.61 0 0 0 7.71-.08c3.27-.52 5.56-2.5 8.43-4.06a5.89 5.89 0 0 0 3-5.18l-.29-3.91-4.41 5.79 3.83-1.09c3.38-1 4.69-4.15 4.19-7.38l-.59-3.86-4.17 7.34c4-1.67 6.28-2.89 8.07-7l-3.59 2.76c.8-.26 1.61-.59 2.43-.79-2 .49.48.22 1.32.15 3-.25 4.61-2 6.65-3.93l-7.27.94a20.37 20.37 0 0 0 4.19 2c.57.14 5 .39 5.58-.4-1.15 1.54-4-.7-1.22.36.34.13.82.2 1.18.3.68.2 1.36.43 2 .66-1.48-.51-.49-.2.42.21a11.85 11.85 0 0 0 8.37.72c2.49-.88-.84-.6-1-.72a6.9 6.9 0 0 0 1.73 1 19.43 19.43 0 0 0 2.14.85l1.08.34c1 .38.87.23-.47-.42-1.37.18-1.19-1-.21.51a7.59 7.59 0 0 0 1.06 1.35 10.87 10.87 0 0 0 5.09 2.27 7.87 7.87 0 0 0 5.67-1 22.19 22.19 0 0 0 2-1.13c.07.49-4.22.84-.57.7a12.55 12.55 0 0 0 4.49-1.18 17 17 0 0 0 2.55-1.21c2.1-1.36-3.14-.3-.82.26 4.25 1 6.67-2.21 8.92-5.15l-3.58 2.76c3.3-.58 5.73-1.39 7.95-4.09 1.33-1.63 1.79-3.34 2.59-5.22-.75 1.76.36 0 .32-.5l.32-.63c-2.08 1.71-2.43 2.18-1.07 1.42 2.76-.27 5.55-4.66 6.38-6.79 0-.13.75-2.37.72-2.38 1.07.43-2.75 3-.06 1.13 1.1-.78 2.11-1.79 3.14-2.66l-7.28.94c2.87 1.22 5.42 2.68 8.61 1.84a26 26 0 0 0 6.53-3.08l-8.17-2.19 2.19 3.45c1.89 3 5.13 3.48 8.21 2.16l3.69-1.59-8.81-3.59.95 4a6 6 0 0 0 5.78 4.4l4.06-.29c7.66-.55 7.72-12.56 0-12l-4.06.29 5.79 4.41-1-4c-1-4.14-5.43-5-8.81-3.59l-3.7 1.59 8.21 2.16-2.13-3.4a6.12 6.12 0 0 0 -8.21-2.15c-.94.55-1.86 1.16-2.83 1.65 1.89-1-.63.14-1.45.42l4.62.6-3.37-1.43c-2.7-1.14-5-1-7.27.94-2.66 2.24-5.4 4-6.39 7.56s.1-.58.77-.49c.22 0-3 2.59-.65 1-1.83 1.22-3.3 1.5-4.65 3.5a22 22 0 0 0 -1.91 4.12l-.58 1.5c-.58 1.43-.26.95 1-1.47a19 19 0 0 0 -1.61 1.63c-.53-1.32 3.88-1.31.75-1a7.76 7.76 0 0 0 -3.13.91c-1.62 1-2.74 2.92-3.88 4.4l5.18-3a16.08 16.08 0 0 0 -4.7.09 14.17 14.17 0 0 0 -2.55 1.21c-1.49.73.86 0-1.35.64-.68.22-.56.26.37.11h-1.37a9.85 9.85 0 0 0 -3.18.51 26.21 26.21 0 0 0 -3.68 2l4.62-.6a11.15 11.15 0 0 0 -2.44-.73c1-1 3.16 2.77 1.31.11a8.27 8.27 0 0 0 -4.62-3.18c-.94-.31-1.9-.73-.48-.05-.73-.35-1.41-.87-2.16-1.18-2.14-.9-3.68-.7-5.91-.45a8.22 8.22 0 0 0 -2.07.22c-1.39.61 2.17 1.34 1.13.52-1.22-1-3.19-1.4-4.67-1.86a18.84 18.84 0 0 0 -9.37-.47l4.62.61-2.75-1.4a6.2 6.2 0 0 0 -7.27.93l-2.27 2.18 4.24-1.76c-5.64-.06-9.57 1.33-11.93 6.73l3.59-2.76-3.22 1.34c-3.28 1.37-4.74 3.81-4.19 7.38l.59 3.86 4.19-7.38-3.83 1.09c-2.38.67-4.6 3.17-4.4 5.78l.29 3.91 3-5.18c-1 .54-4.09 1.68-4.59 2.83-.27.62 2.57-.33 1.87-.37a13.12 13.12 0 0 0 -1.52.18c-.78.06-1.62.11-2.37.23-1.07.18-.31.14.38.23-.48-.06-1-.26-1.44-.37-.74-.18-1.45-.3-2.21-.43a12.06 12.06 0 0 0 -7.43 1l4.62.61c-.46-.28-2.62-1.6-1.81-1s-1.14-1.19-1.54-1.58a6 6 0 0 0 -5.84-1.55l-3.31 1.21 6.78 2.76-1.73-3.08c-1.67-3-5.34-3.56-8.21-2.15l-3.49 1.72 8.21 2.15c-1.71-2.73-3-4.71-6-6-3.95-1.7-6.3-.45-9.74 1.49l4.63-.6a14.72 14.72 0 0 0 -8.37-.19l4.62.6-3-1.29c-2.34-1-5.39-1.22-7.27.94l-2 2.34 4.24-1.76-3.46.11a6.13 6.13 0 0 0 -6 6l-.17 4.06 4.41-5.78c-2.23.51-4.24.78-6.05 2.32-1.15 1-2.19 2.34-3.29 3.41a29.26 29.26 0 0 0 -2.58 2.76c-.71.87-1.28 1.82-2 2.7s-.53.76.17-.2l-1.08 1.09c-2 .84 4-1.22.09-.55a7.81 7.81 0 0 0 -3.65 1.7 7.63 7.63 0 0 0 -1.44 1.31c-1.19 1-.67.77 1.58-.76l-1.52.34c-2 .41 4.1.85.32-.37a7.08 7.08 0 0 0 -4.22-.32c-2 .55-3.81 2.45-5.42 3.7h8.49c-2.91-2.55-5-4-8.91-4.41s-6.53.49-10 2.47l8.21 2.15-2.07-3.32a6.13 6.13 0 0 0 -6.77-2.76l-3.29 1 4.63.6c-1.53-.95-3.14-2.19-5-2.32-2.13-.14 2.47 2.51 0-.33a6.74 6.74 0 0 0 -2.65-2.1c-1.8-.77-3.52-.36-5.4-.31h-1.51c-1.52-.07-.91.16 1.81.67a12.66 12.66 0 0 0 -2.31-1.2 6.13 6.13 0 0 0 -7.27.93l-2.55 2.78 7.28-.94-2.84-1.5a6.17 6.17 0 0 0 -8.21 2.15l-1.79 2.65 5.18-3c-2.92-.26-4.79-.35-7.32 1.48-.47.34-.87.79-1.34 1.14-1.12.81 1.19-.76-1.12.55-3.5 2-4.4 5.73-5.85 9.26l2.76-3.59c-1.82 1.18-3.69 2.22-5.56 3.33-3.43 2-4.25 4.11-5 7.86l5.79-4.4a26 26 0 0 0 -13.77 4l7.27.94c-2.51-2-4.42-3.59-7.75-3.8-.57 0-2.65-.44-.42.06a4.59 4.59 0 0 1 -1.41-.39c-1.71-1.29 1.62 1-.29-.25a16.62 16.62 0 0 0 -1.36-1 6.86 6.86 0 0 0 -4.61-.78c-2.76.53 3.26 1.82-.23-.29-3-1.84-5.46-.84-8.46.29l6.77 2.76-1.88-2.89a6.15 6.15 0 0 0 -6.78-2.76 10.79 10.79 0 0 0 -2 .6c-2.12 1.16 3.44.25.83 0s2.05 2.24.53.39a15 15 0 0 0 -1.55-1.43c-2.16-2-4.72-2.08-7.28-.94-1.78.79-3.5 1.62-5.23 2.55h5.96l-3.09-1.42a6.29 6.29 0 0 0 -7.27.94c-.22.2-2 1.56-1.9 1.72-.22-.6 4.15-1.64.55-1a9.37 9.37 0 0 0 -4.69 2.51 7.7 7.7 0 0 0 -2.83 5.47 24.68 24.68 0 0 1 -.21 2.6q1.28-3.83.16-1.52l-.62 1.17 3.58-2.76c-5.66 1.53-8.34 4-10.24 9.57l4.19-4.19a22.64 22.64 0 0 0 -7.72 4.46l4.24-1.76a27.45 27.45 0 0 0 -4.14-.37c-3.4 0 .71.74.53.45-.32-.53-1.42-1-2-1.39-3.63-2.42-6.45-2.2-10.57-1.42l6.78 2.75c-2.16-4.85-4.82-7.46-10.14-8.54l3.58 2.76-1.34-2.83c-3.32-7-13.67-.89-10.36 6.06z" fill="#f7f6f7"/><path d="m661.16 870.43c.54-.24 1.16-.44 1.67-.73 1.57-.92-2.77 0-1.26.44a9.1 9.1 0 0 0 4.79-.46c2-.86 2.73-2.49 4-4.12s-1.09 1.14.44-.42c.45-.48 1-.91 1.44-1.36l-7.27.94 3.74 2.74c2.58 1.9 6.76.45 8.21-2.15l2.35-4.22-8.27 2.15 2.4 1.84c1 .78-1.29-1-.17-.11l1.68 1.32c.87.69 1.76 1.34 2.66 2 1.76 1.28-.7-.67 1.38 1.26a19.62 19.62 0 0 0 5.14 3.87c2.54 1.07 5.28 0 7.8-.69l-4.63-.61c3.82 1.77 7.29 2.13 11.42 2.5l-5.18-3 2.19 3.57a6.13 6.13 0 0 0 8.21 2.15 12.25 12.25 0 0 0 1.83-1c1.56-1.18-2.67 0-1 .31a16.29 16.29 0 0 0 3.82-.08c4.27-.21 6.1-1.7 8.68-4.86 2.1-2.58 2.41-5.93 0-8.49l-4-4.23v8.48c3.74-2.92 5.76-5.68 6.76-10.42l-2.76 3.59c2.83-1.81 4.72-3.43 5-7a9.27 9.27 0 0 0 0-1.58c-.27-3-.16 1.67-.61 1.48a31.76 31.76 0 0 0 2.08-2.9l-8.21 2.15c2.54 1.59 4.45 3 7.64 2.49.38-.06 2.6-.45 2.7-.71h-2.59l1.1.29a8.19 8.19 0 0 1 1.38.37l-4.19-4.19c1.1 3.55 2.15 7 5.33 9.25 3.56 2.56 7.63 1.81 11.36.29l-6.77-2.76 2.18 3.27a6.08 6.08 0 0 0 9.42 1.21l2.83-2.69-7.27.94 3.56 1.85c3.34 1.74 7.83.33 8.81-3.58l1-4.08-4.13 4.26c2-.69 4.29-1.21 5.84-2.66a18.72 18.72 0 0 0 2.06-2.82c.6-.83.37-.48-.12.12.42-.52.88-1 1.31-1.5 2.93-3.47 2.41-7.66 2.08-11.9l-7.59 5.76 4.67 1c2.93.59 6.79-.82 7.38-4.19l.9-5.19-10 2.65 3.7 4.69c1.86 2.36 6.62 2.31 8.48 0l2.83-3.51-5.84 1.54a20.94 20.94 0 0 0 9.45-.24l-7.38-4.19 1.39 4.9c1.11 3.94 5.35 5.28 8.81 3.59l3.58-1.76-8.21-2.15 2 3.86c1.77 3.45 6.84 3.85 9.43 1.21l3.39-3.46-7.27.94c2.14 1.27 4.31 2.48 6.49 3.68 3.68 2 7.4.05 8.82-3.58l1.6-4.12-5.78 4.4h3.9c3 0 6.35-2.79 6-6l-.5-4.71-1.76 4.24a27.6 27.6 0 0 0 5.11-6.08c2.27-3.43 2-6 1.09-9.84l-.61 4.62c1-1.86 2-3.66 3.12-5.47 4-6.63-6.38-12.67-10.37-6.06a47.61 47.61 0 0 0 -3 5.34c-1.25 2.86-.59 5.16.11 8l.61-4.62c-.61.93-1.21 1.86-1.83 2.78a16.39 16.39 0 0 1 -1.29 1.91c1.52-1.75-.57.16-.9.49-2.86 2.8-2.13 5.81-1.75 9.38l6-6h-3.9c-2.86 0-4.82 1.93-5.79 4.41l-1.6 4.12 8.81-3.59c-2.18-1.2-4.35-2.41-6.49-3.68a6.11 6.11 0 0 0 -7.27.93l-3.4 3.47 9.43 1.21-2-3.86c-1.54-3-5.43-3.51-8.2-2.15l-3.59 1.76 8.82 3.58-1.39-4.9a6.12 6.12 0 0 0 -7.38-4.19 17.77 17.77 0 0 0 -3.09.73c.16-.66 3.92.79 1.91-.14a9.31 9.31 0 0 0 -1.89-.35c-2-.37-4.45-.17-5.84 1.54l-2.82 3.51h8.48l-3.7-4.68c-2.7-3.42-9.3-1.56-10 2.64l-.89 5.19 7.38-4.2-4.67-.94c-3.53-.71-7.92 1.64-7.6 5.79a51.7 51.7 0 0 1 .13 7.15l1.76-4.25a66.15 66.15 0 0 0 -4.64 5.93l3.58-2.76c-2.22.78-4.81 1.33-6.31 3.27-1.31 1.69-1.58 4.08-2.1 6.12l8.82-3.59-3.56-1.85a6.21 6.21 0 0 0 -7.28.94l-2.82 2.69 9.42 1.21-2.18-3.27c-1.34-2-4.26-3.78-6.78-2.76-.73.3-2.3.56-2.79 1.14s2.87.2 2 .1a9.92 9.92 0 0 0 -1.86-.38c-.15.23 3.51 1.79 1.68.72-.51-.29-2-2.59-.43-.07s0-1-.28-1.87c-2.09-6.1-8.06-6.34-13.41-4.93l4.62.61-3-1.89c-2.94-1.84-6.37-.42-8.21 2.15a15 15 0 0 0 -3.17 9.64l3-5.18a16.13 16.13 0 0 0 -3.2 2.21 7.21 7.21 0 0 0 -1.63 3c-.07.23-.59 2.59-.18 1.37s-.62 1.11-.61 1.1c-.78 1.53.61-.43 0 .06-.9.77-1.87 1.47-2.81 2.2-2.61 2-2 6.35 0 8.48l4 4.24v-8.49l-2.47 3 4.25-1.75c-4.76.21-8.33.19-12.66 2.45l8.21 2.15c-1.08-1.75-2.08-4-3.74-5.25-1.92-1.49-4.65-1.4-7-1.57a6.69 6.69 0 0 0 -1.66-.11c-1 .2 2.45 1.08 1.72.49a11.53 11.53 0 0 0 -3.49-1.56c-2.37-.55-4.8.41-7.08 1l5.84 1.55c-2.41-1.87-4.54-4-7-5.77-2-1.4.65.56-.86-.62l-1.77-1.3c-1.36-1.06-2.73-2.1-4.09-3.15-2.54-2-6.78-.41-8.21 2.15l-2.35 4.22 8.21-2.15-3.73-2.71c-2.17-1.6-5.47-.75-7.27.93a31.16 31.16 0 0 0 -4.86 5.88l5.19-3a19.06 19.06 0 0 0 -8.94 1.87c-7.06 3.1-1 13.44 6 10.36z" fill="#f7f6f7"/><path d="m431.4 327.37-.92 2.57.92 2.99-2.08 2.1-.65 2.79-1.48 2.45-2.13 1.92-2.47 1.45-2.63 1.16-2.85.36-2.81-.06-2.67-.87-2.98.52-2.61-1.18-1.53-2.73-2.2-1.48-1.89-1.9-1.78-2.11-1.46-2.41.56-2.94-1.74-2.63 2.13-2.56-1.18-3.07 2.73-1.81.52-2.8 2.57-1.29.76-3.28 3.35.24 2.02-2.05 2.84.49 2.56-.99 2.79-.52 2.78.5 2.42 1.46 2.56 1.17 1.8 2.16.94 2.7 2.09 1.81.15 2.79 1.65 2.33z" fill="#231f20"/><path d="m579.73 290.5.22 2.73-.45 2.73-1.04 2.57-2.15 1.86-.63 3.1-3.23.45-2.12 1.56-2.31 1.42-2.77-.25-2.56.83-2.58-.76h-2.7l-2.36-1.26-1.94-1.79-2.63-.99-1.64-2.14-2.37-1.8-1.03-2.66.13-2.89.71-2.71-.53-2.69 1.19-2.43-.25-3.04 1.99-2.02 2.28-1.55 1.57-2.25 2.01-2.02 2.94-.02 2.57-.65 2.64-.26 2.78-.63 2.63.89 2.85.45 2.53 1.36 1.13 2.93 2.92 1.14 1.07 2.68.89 2.65.22 2.76z" fill="#231f20"/><path d="m468.85 355.81c.32.22 2.77 1.62 1.22.77.41.23 1.89 1.91.84.39 1 1.51 1.44 2.91 2.79 4.3 1.67 1.72 3.35 2.06 5.44 3-1.45-.68.46.56.81.75a10.68 10.68 0 0 0 3.37 1c.41.09 3.1.05 1.25.17l1.26.21c1.13.24.65-.13-1.46-1.13-.58.93 5.75 3.24 5.89 3.24a10.22 10.22 0 0 0 2.43-.43c2.61-.54-.4-.14 1.43-.07a12.24 12.24 0 0 0 5.15-.95l-4.33-.57 2.59 1.6a5.68 5.68 0 0 0 5.68 0c.13-.07 4.25-2.25 4.11-2.54s-3.8.82-.23.34a15.82 15.82 0 0 0 2.81-.69c4-1.17 6.17-2.39 8.35-6l-3.36 2.58c4.15-1.61 5.78-3.25 7.19-7.43l-3.93 3.93a14.86 14.86 0 0 0 4.31-1.26c1.47-.89 2.5-3.22 2.81-3.66-.6.85.91-.86 1-1a7.59 7.59 0 0 0 1.73-2.77 15.64 15.64 0 0 0 .22-4.27l-1.65 4a11.44 11.44 0 0 0 3.63-8.51c.14-2.49.5-4.92.56-7.42.15-7.24-11.1-7.24-11.25 0-.08 3.35-.53 6.66-.66 10l1.65-4a10.77 10.77 0 0 0 -3.55 8.69l1.65-4a21.4 21.4 0 0 0 -3.88 5.24l3.37-2.59c-4.53 1-6.29 2.8-7.76 7.19l3.93-3.93c-3.43 1.33-5.26 2.67-7.15 5.82l3.36-2.59a24.56 24.56 0 0 0 -2.82.8c-.13.06-2.75 1.11-.79.62-.61.15-1.29 0-1.9.16-2.9.62-4.89 2.15-7.47 3.57h5.68c-3.23-2-4.86-2.2-8.56-1.56-1.58.27 2.15 0-.53-.06a14.31 14.31 0 0 0 -2-.06 23.27 23.27 0 0 0 -3.38.77l5.47 1.44c-2.13-1.78-3.87-3.14-6.68-3.57-.16 0-4-.58-4-.54.05-.32 3.59 1.22.67-.48a13.72 13.72 0 0 0 -1.87-.85c-.22-.08-1.88-.58-1.88-.6l1.83 1-.92-1c-.28-1.11.77 1.21-.1-.35-.27-.47-.39-1-.69-1.48-1.41-2.17-3.93-3.62-6-5.07-6-4.12-11.61 5.63-5.68 9.72z" fill="#f7f6f7"/><path d="m437.14 368.06-.19 3.01-2.3 2.39 1.15 3.33-3.62 1.01-.72 2.76-.98 2.92-2.93.76-1.34 2.98-3.45-.5-2.06 1.99-2.85.14-2.19 2.15-3.01-.85-2.49 1.43-2.86-1.45-2.6 1.3-2.7.15-2.55-1.35-3.09 1.94-1.91-3.33-2.43-.8-3.17.35-1.94-1.97-1.07-2.57-3.16-1.16-1.66-2.61.09-3.08.99-2.8.89-2.71 3.37-1.1.58-2.85 1.34-2.52 2.74-.95 1.21-3.14 3.17-.03 2.22-1.7 2.51-1.17 3.12.89 2.17-2.54 2.91.72 2.54-1.9 2.82.75 2.64 1.95 2.79-1.35 2.93-.67 1.95 3.22 3.12-.71 2.42 1.33 2.3 1.53 1.38 2.46 1.67 2.1z" fill="#fc5432"/><path d="m615.78 313.43 1.85 2.22-.23 2.71.51 3-2.49 1.95-2.01 1.83-.62 2.88-.87 3.02-2.97.85-3.18.19-.8 3.78-2.57 1.13-2.48 1.27-2.92.1-2.5 1.19-2.68.58-2.59 1.28-2.94-1.74-2.66.25-2.73.66-2.82.26-2.16-2.55-2.8.02-2.47-1.12-1.85-1.96-.77-2.61-3.73-1.15 1.74-3.19-.56-2.56.32-2.66.6-2.71 2.94-1.32-.16-3.52 2.46-1.46 2.89-.75 1.11-3.01 2.96-.39 2.26-1.43 2.81-.24 1.71-3.05 2.58-1.01 2.83.01 2.86.73 2.67.27 2.6-2.95 2.8.44 2.36 2.65 2.92-.84 3.03-.1 2.45 1.56 2.55 1.53.37 3.36z" fill="#fc5432"/></svg>